<?xml version="1.0" standalone="no"?>
<!DOCTYPE svg PUBLIC "-//W3C//DTD SVG 20010904//EN"
 "http://www.w3.org/TR/2001/REC-SVG-20010904/DTD/svg10.dtd">
<svg version="1.0" xmlns="http://www.w3.org/2000/svg"
 width="1072.000000pt" height="1072.000000pt" viewBox="0 0 1072.000000 1072.000000"
 preserveAspectRatio="xMidYMid meet">
<metadata>
Created by potrace 1.11, written by Peter Selinger 2001-2013
</metadata>
<g transform="translate(0.000000,1072.000000) scale(0.100000,-0.100000)"
fill="#000000" stroke="none">
<path d="M5 10707 c-5 -11 -1 -10567 4 -10592 1 -5 -1 -34 -5 -63 l-7 -53 49
3 c48 3 49 3 57 43 4 22 12 87 18 145 11 104 25 147 60 185 16 18 36 86 59
207 5 27 22 64 39 85 27 34 39 68 56 153 2 14 24 60 48 102 35 61 46 91 52
144 7 66 18 92 82 188 18 26 33 55 33 64 0 14 57 83 145 174 19 20 35 40 35
44 0 26 141 144 172 144 7 0 38 12 68 26 126 60 176 83 200 90 14 3 61 24 105
46 44 21 109 51 145 65 35 14 89 41 120 58 65 38 310 168 565 299 56 28 114
60 130 72 27 19 71 42 150 82 17 8 41 23 55 32 14 10 86 48 160 85 74 38 150
79 168 92 18 14 68 41 110 60 42 19 84 41 92 49 9 7 42 17 74 22 37 6 62 16
68 26 5 9 32 28 60 42 29 15 73 41 99 59 38 26 60 33 116 38 50 4 89 15 139
39 128 62 165 92 201 163 29 55 48 74 78 75 18 0 17 3 -8 23 -26 21 -28 25
-16 50 7 15 23 34 36 42 12 9 23 23 23 33 0 21 19 42 37 42 21 0 15 -41 -7
-47 -23 -6 -25 -14 -8 -31 12 -12 -3 -77 -30 -119 -10 -16 -14 -66 -14 -190
-1 -92 1 -184 3 -203 4 -32 2 -35 -25 -38 -28 -3 -28 -2 -22 31 7 35 0 67 -14
67 -12 0 -34 -61 -32 -87 1 -16 -4 -23 -16 -23 -33 0 -81 -38 -90 -72 -6 -25
-19 -39 -55 -58 -25 -14 -58 -37 -72 -50 l-25 -24 -30 22 c-17 13 -30 19 -31
15 -6 -64 -8 -141 -4 -152 4 -11 11 -9 29 8 27 25 59 25 64 -1 2 -10 -15 -28
-48 -49 -36 -24 -53 -41 -57 -62 -3 -15 -17 -36 -30 -45 -64 -45 -81 -64 -93
-106 -11 -39 -10 -49 5 -78 10 -18 21 -53 25 -78 l6 -45 16 36 c17 39 27 44
123 54 100 11 134 32 104 62 -9 9 -8 18 5 37 9 15 21 26 26 26 6 0 10 15 10
33 0 17 9 43 20 57 11 14 20 34 20 45 0 21 -43 75 -60 75 -6 0 -10 4 -10 9 0
15 78 22 100 9 15 -10 22 -10 31 -1 16 16 -5 43 -32 43 -11 0 -19 4 -19 9 0
14 55 51 75 51 15 0 17 -7 11 -53 -4 -28 -14 -71 -22 -95 -8 -23 -14 -52 -14
-64 0 -12 -11 -40 -24 -62 -13 -23 -31 -68 -41 -101 -9 -33 -28 -78 -41 -101
-13 -22 -21 -43 -18 -46 8 -8 -14 -48 -27 -48 -5 0 -8 12 -7 27 3 25 -1 28
-37 33 -22 4 -50 10 -62 14 -17 5 -30 0 -54 -23 -31 -30 -41 -35 -66 -32 -16
2 -31 -29 -54 -107 -13 -45 -15 -70 -9 -83 13 -23 13 -56 1 -64 -5 -3 -21 0
-34 6 -21 9 -29 8 -51 -12 -14 -12 -26 -32 -26 -44 0 -27 -18 -45 -47 -45 -17
0 -23 -6 -23 -21 0 -11 -5 -29 -11 -41 -13 -25 -4 -36 19 -21 14 8 23 7 37 -4
11 -8 46 -26 78 -40 58 -26 73 -51 37 -60 -11 -3 -20 -9 -20 -14 0 -5 -9 -9
-20 -9 -11 0 -20 4 -20 8 0 5 -23 21 -51 37 -43 23 -56 26 -83 18 -58 -18 -69
5 -40 82 18 47 25 113 13 121 -12 7 -11 51 1 59 6 4 8 15 5 25 -3 10 3 33 15
52 11 18 20 41 20 51 0 10 7 31 15 47 13 25 19 28 48 23 41 -6 56 11 50 55 -5
31 -8 33 -32 29 -42 -9 -56 5 -43 42 6 18 20 44 32 58 29 37 25 58 -11 74
l-32 13 29 22 c34 28 26 41 -15 24 -18 -7 -38 -27 -48 -49 -10 -20 -33 -44
-53 -55 -22 -11 -46 -38 -62 -67 -15 -26 -40 -53 -55 -61 -22 -10 -29 -21 -31
-49 -2 -23 -12 -45 -28 -59 -13 -13 -24 -32 -24 -42 0 -12 -7 -18 -22 -18 -16
-1 -31 -14 -49 -44 -23 -37 -33 -45 -68 -51 -23 -4 -41 -10 -41 -14 0 -13 24
-31 42 -31 29 0 58 -40 58 -82 0 -25 7 -45 21 -59 18 -18 19 -23 6 -37 -8 -9
-17 -26 -21 -36 -6 -17 -12 -14 -59 30 -28 27 -56 55 -61 63 -4 7 -23 30 -41
50 -18 20 -40 50 -49 68 -13 26 -23 32 -53 35 -72 6 -28 23 59 23 48 0 92 5
97 10 19 20 17 64 -4 79 -20 15 -19 16 13 46 17 17 32 35 32 39 0 4 71 77 157
162 258 253 330 331 365 392 18 32 43 71 56 87 12 15 22 39 22 52 0 17 17 39
55 72 30 26 55 54 55 62 0 8 18 34 40 58 22 23 37 45 34 48 -8 9 -85 -24 -110
-47 -80 -74 -164 -158 -164 -165 0 -4 -23 -29 -51 -55 -28 -26 -111 -113 -186
-192 -75 -80 -172 -183 -217 -229 -72 -74 -128 -136 -257 -287 -82 -97 -105
-182 -67 -254 30 -60 1 -249 -61 -392 -47 -108 -68 -181 -75 -264 -6 -76 -32
-202 -62 -299 -13 -43 -22 -94 -44 -268 -14 -107 -30 -172 -61 -234 -23 -46
-29 -73 -29 -123 l0 -63 68 0 c37 0 85 5 107 10 25 6 44 5 49 0 6 -6 45 -10
88 -10 78 0 78 0 78 27 0 14 -7 34 -16 44 -14 15 -14 20 0 46 15 30 76 83 94
83 6 0 13 -6 15 -12 3 -7 3 3 0 24 -4 30 -2 38 16 47 18 10 23 8 40 -20 20
-33 14 -69 -11 -69 -7 0 -8 -15 -4 -48 4 -26 10 -64 13 -84 l5 -38 125 0 c125
0 125 0 119 23 -18 60 -19 87 -3 87 23 0 77 -49 77 -70 0 -31 25 -41 95 -38
l67 3 -26 30 c-14 17 -49 56 -77 87 -38 42 -52 67 -56 96 -5 36 -9 41 -39 46
-24 5 -42 19 -69 57 -20 27 -45 54 -55 59 -12 7 -19 24 -22 56 -3 42 -1 47 22
56 100 39 110 47 110 82 0 31 6 38 68 79 37 25 74 53 83 63 10 11 42 45 72 77
34 35 54 64 50 73 -3 9 2 14 17 14 11 0 18 4 15 10 -10 16 -77 11 -120 -9 -46
-21 -165 -134 -165 -156 0 -8 -13 -29 -29 -47 -16 -18 -30 -42 -32 -52 -6 -29
-45 -53 -134 -82 -44 -14 -93 -32 -108 -40 -16 -8 -33 -14 -38 -14 -14 0 -11
20 6 36 22 22 18 43 -7 53 -19 7 -26 4 -42 -20 -18 -29 -18 -51 0 -136 6 -30
3 -34 -42 -62 -57 -37 -83 -46 -95 -34 -4 4 1 44 12 88 16 60 19 94 14 135 -4
30 -8 84 -8 120 -1 59 1 66 23 77 16 8 31 8 49 1 46 -17 60 -36 54 -75 -5 -28
-3 -35 8 -31 8 2 16 18 17 34 2 16 8 34 13 40 6 7 1 30 -13 63 -31 69 -57 76
-105 27 -43 -44 -63 -46 -63 -7 0 80 33 134 91 146 16 4 34 16 40 27 16 29 -4
91 -37 117 -26 20 -26 21 -10 55 9 19 16 43 16 54 0 11 23 39 55 67 30 25 55
53 55 60 0 15 51 35 90 35 17 0 38 -12 59 -34 18 -19 45 -37 58 -41 14 -3 42
-17 62 -31 19 -13 39 -24 43 -24 9 0 134 -56 180 -80 50 -27 67 -25 113 13 21
17 59 43 84 57 34 18 51 37 67 70 12 25 43 63 68 84 25 20 46 44 46 51 0 23
59 117 98 158 60 61 112 44 78 -27 -9 -19 -16 -39 -16 -45 0 -6 -23 -25 -50
-42 -28 -17 -51 -35 -52 -40 0 -5 -1 -15 -2 -21 -1 -7 -7 -18 -15 -24 -7 -6
-16 -28 -20 -50 -4 -27 -13 -42 -29 -49 -29 -13 -32 -28 -36 -144 -2 -88 -4
-95 -30 -117 -15 -13 -39 -24 -53 -24 -23 0 -25 -3 -21 -32 5 -30 -15 -109
-32 -133 -4 -5 -11 -24 -14 -41 -6 -26 -3 -34 19 -48 30 -20 31 -47 6 -96
l-19 -35 -75 0 -76 0 2 35 c2 29 -2 36 -21 38 -30 5 -36 -16 -23 -80 14 -63 2
-139 -25 -169 -15 -16 -18 -33 -16 -71 l4 -50 -29 6 c-32 7 -45 0 -61 -30 -10
-19 -8 -23 10 -27 11 -3 33 -3 49 0 22 4 34 -2 63 -33 27 -29 33 -41 26 -55
-15 -27 -13 -29 25 -29 41 0 75 -29 75 -62 0 -33 11 -43 45 -43 22 0 33 -6 40
-22 8 -20 17 -23 63 -23 29 0 61 6 72 12 15 10 24 10 39 1 13 -8 189 -12 655
-12 350 0 636 2 636 5 0 3 -10 19 -21 36 -13 18 -25 55 -29 92 -4 33 -19 88
-34 121 -14 33 -26 68 -26 77 0 9 -12 30 -26 47 -14 17 -24 41 -23 53 5 45
-13 114 -43 163 -27 44 -30 55 -25 108 5 51 2 65 -24 114 -16 30 -29 67 -29
82 0 32 -25 71 -46 71 -15 0 -11 35 7 72 18 35 9 66 -32 106 -39 37 -41 43
-46 108 -3 38 -15 98 -28 134 -13 36 -31 102 -40 147 -20 104 -51 192 -76 219
-13 14 -22 42 -26 80 -3 33 -16 79 -29 104 -13 25 -24 54 -24 66 0 12 -13 41
-30 65 -25 38 -30 53 -30 110 0 53 -4 72 -22 94 -14 19 -25 50 -30 93 -4 37
-19 86 -33 114 l-25 48 1 347 c0 192 0 386 -1 433 -1 75 3 95 31 165 32 79 32
83 37 280 6 258 6 262 -5 445 l-10 155 -55 107 c-30 58 -58 114 -61 125 -19
64 -68 176 -86 199 -11 15 -21 39 -21 54 0 51 -74 190 -101 190 -20 0 -124 54
-136 71 -7 9 -23 19 -35 22 -14 4 -44 37 -78 89 -30 45 -77 114 -103 152 -27
38 -55 89 -63 115 -7 25 -37 84 -67 131 -29 47 -60 101 -67 120 -8 19 -30 62
-50 95 -34 58 -35 63 -34 161 0 88 4 108 27 158 15 31 27 66 27 77 0 54 48 95
144 123 43 13 53 13 77 0 45 -23 76 -73 88 -143 6 -35 17 -71 26 -81 8 -9 15
-20 15 -24 0 -10 59 -59 80 -68 13 -5 19 -24 24 -79 7 -80 -1 -100 -29 -69
-25 28 -98 28 -122 0 -10 -11 -29 -20 -44 -20 -44 0 -62 -31 -64 -114 -2 -72
-2 -75 27 -96 16 -12 38 -40 48 -63 11 -23 27 -54 37 -70 15 -23 16 -30 5 -48
-15 -24 -15 -26 15 -31 26 -4 27 -2 18 35 -10 37 7 53 63 60 l42 5 0 -38 c0
-23 12 -61 30 -95 17 -32 36 -79 42 -104 6 -25 23 -69 38 -97 15 -28 30 -62
33 -74 6 -22 7 -23 24 -7 16 14 18 29 15 113 -1 55 -9 109 -16 123 -33 65 -47
109 -76 254 l-31 156 20 74 c27 93 27 194 1 267 -22 63 -25 106 -9 147 6 16
13 129 15 257 3 126 9 237 15 247 5 11 18 19 28 19 31 0 56 119 71 335 6 90 5
114 -7 134 -31 48 -33 80 -13 157 11 41 20 87 20 104 0 21 12 43 37 71 34 37
38 48 44 116 7 68 11 79 56 137 26 35 66 76 88 90 89 57 133 93 165 133 22 30
44 46 70 53 37 10 65 33 118 98 22 28 37 35 75 39 26 3 50 10 53 14 9 14 51
10 64 -6 7 -8 15 -30 19 -48 4 -19 15 -36 29 -42 12 -5 22 -13 22 -17 0 -13
52 -9 95 7 53 19 96 19 307 -2 151 -14 186 -15 230 -4 74 19 194 75 201 95 10
26 66 20 99 -11 44 -42 37 -56 -21 -48 -61 8 -76 -9 -25 -30 34 -14 38 -14 66
7 19 13 48 22 77 23 25 1 73 10 106 20 45 13 77 15 126 11 61 -6 72 -4 130 24
70 34 91 37 109 15 16 -19 -8 -30 -51 -21 -26 5 -32 1 -49 -27 -28 -48 -50
-67 -108 -93 -66 -29 -117 -39 -126 -25 -8 13 -72 15 -80 3 -25 -41 153 -54
289 -21 44 11 92 26 107 34 38 22 58 19 114 -16 27 -18 61 -36 75 -41 15 -5
45 -31 68 -58 40 -47 43 -49 108 -55 38 -3 82 -12 98 -20 17 -7 47 -19 68 -26
45 -16 72 -42 63 -64 -10 -26 -36 -29 -60 -6 -25 23 -50 28 -44 9 2 -7 25 -24
51 -37 37 -18 63 -23 112 -22 42 1 77 -5 102 -16 45 -21 136 -89 177 -132 17
-17 35 -31 42 -31 27 0 43 -40 37 -95 -3 -32 -1 -67 7 -87 13 -35 29 -167 35
-280 2 -51 13 -92 45 -169 57 -140 67 -235 50 -509 -10 -166 -16 -219 -36
-279 -13 -40 -24 -97 -24 -125 0 -28 -4 -66 -10 -85 -5 -18 -12 -94 -15 -168
-3 -74 -10 -158 -16 -186 -5 -29 -7 -77 -3 -107 8 -73 -17 -167 -52 -198 -23
-20 -24 -24 -10 -37 12 -12 13 -21 4 -39 -7 -16 -7 -37 -2 -61 l9 -37 28 22
c15 12 41 42 58 66 25 36 28 48 19 59 -18 22 -5 58 36 96 39 38 40 39 83 90
18 21 46 40 70 48 50 15 81 46 81 82 0 18 14 44 40 74 22 25 40 50 40 55 0 4
-11 11 -25 14 -24 6 -25 9 -19 54 7 56 0 65 -68 83 -40 11 -49 10 -73 -5 -15
-10 -34 -31 -43 -47 -38 -65 -54 2 -22 87 24 65 53 93 96 94 27 0 74 33 74 53
0 13 -27 7 -40 -8 -20 -25 -59 -19 -66 10 -3 14 -4 32 0 40 6 16 12 19 58 29
19 4 30 16 38 41 6 19 16 35 21 35 5 0 35 24 67 53 63 58 122 83 174 73 58
-11 67 -24 74 -106 4 -41 15 -94 25 -117 11 -23 19 -54 19 -68 0 -30 -46 -175
-61 -190 -5 -5 -9 -17 -9 -26 0 -9 -21 -45 -47 -80 -49 -64 -64 -85 -97 -135
-10 -16 -28 -42 -40 -59 -68 -98 -86 -129 -87 -149 0 -11 -14 -41 -30 -66 -42
-64 -100 -187 -114 -240 -9 -35 -16 -45 -31 -43 -10 1 -63 5 -117 9 -87 6 -99
5 -118 -12 -32 -29 -45 -62 -59 -144 -12 -77 -37 -167 -50 -185 -4 -5 -20 -44
-35 -85 -15 -41 -45 -112 -66 -157 -22 -45 -39 -88 -39 -95 0 -8 -8 -25 -17
-38 -14 -20 -19 -58 -24 -190 -5 -117 -11 -176 -23 -202 -9 -22 -16 -65 -16
-102 0 -56 4 -70 34 -115 19 -28 44 -76 55 -107 19 -49 20 -68 15 -164 -6
-101 -5 -110 16 -145 20 -33 22 -49 23 -173 1 -204 -7 -291 -31 -338 -11 -22
-23 -62 -27 -89 -4 -28 -13 -61 -20 -75 -7 -14 -15 -53 -19 -87 -9 -78 -29
-149 -67 -231 -16 -35 -29 -69 -29 -75 0 -7 -13 -37 -29 -67 -15 -30 -31 -78
-34 -107 -3 -28 -14 -69 -25 -90 -10 -21 -24 -63 -32 -93 -7 -30 -19 -65 -27
-77 -8 -12 -21 -43 -28 -70 -8 -26 -25 -79 -39 -118 -13 -38 -39 -115 -56
-170 -18 -55 -41 -117 -51 -137 -10 -20 -19 -56 -19 -79 0 -27 -9 -58 -25 -84
-13 -24 -27 -62 -31 -86 -9 -58 -38 -170 -63 -243 -12 -33 -21 -69 -21 -80 0
-12 -10 -41 -21 -66 -12 -25 -29 -74 -39 -110 -10 -36 -22 -78 -28 -95 -6 -16
-18 -50 -25 -75 -8 -25 -24 -67 -35 -95 -35 -89 -54 -149 -62 -201 -4 -28 -13
-61 -19 -72 -6 -11 -11 -23 -11 -26 0 -12 219 -6 245 6 21 9 31 9 46 0 30 -19
946 -15 953 4 7 19 46 18 46 -1 0 -17 55 -21 65 -5 3 6 17 10 31 10 54 0 94
35 94 81 0 12 10 23 25 29 27 10 65 45 65 59 0 5 -12 11 -27 13 -41 5 -41 28
0 28 28 0 40 7 62 36 20 26 24 39 16 47 -20 20 -11 42 26 62 46 25 73 53 73
77 0 10 7 30 16 44 13 19 19 22 31 13 9 -9 17 -9 24 -2 7 7 6 15 -6 24 -9 8
-24 22 -35 33 -11 11 -35 19 -60 20 -34 2 -48 9 -79 44 -21 23 -44 42 -50 42
-6 0 -11 9 -11 20 0 27 31 26 58 -3 12 -13 22 -27 22 -33 0 -5 9 -19 18 -32
16 -21 20 -22 31 -8 11 13 9 17 -13 27 -14 7 -26 16 -26 20 0 10 29 39 39 39
20 0 60 -43 63 -68 2 -22 9 -28 33 -30 61 -6 83 -21 90 -63 5 -29 2 -44 -12
-63 -10 -13 -25 -34 -33 -46 -8 -12 -28 -38 -43 -58 -15 -20 -36 -54 -47 -76
-26 -55 -136 -225 -166 -257 -13 -14 -24 -28 -24 -32 0 -4 38 -7 83 -7 69 0
87 3 100 18 10 10 17 25 17 34 0 24 138 203 154 200 8 -1 17 2 21 8 3 5 18 10
31 10 16 0 24 5 21 13 -2 6 -16 11 -31 9 -41 -4 -33 25 11 37 54 15 67 14 88
-9 18 -19 17 -21 -1 -55 l-18 -35 32 -33 c40 -41 41 -74 3 -111 -26 -25 -28
-30 -18 -57 l11 -29 96 0 c84 0 97 2 108 20 7 11 19 20 27 20 8 0 19 -9 25
-20 9 -17 21 -20 89 -20 65 0 81 3 96 20 23 26 41 25 48 0 5 -20 12 -21 139
-20 152 2 179 6 171 26 -3 8 0 14 5 14 6 0 14 -9 17 -20 6 -18 15 -20 81 -20
83 0 84 1 49 70 -8 14 -25 68 -39 120 -14 52 -41 133 -61 180 -19 46 -35 96
-35 110 0 14 -19 66 -41 115 -39 87 -49 112 -99 255 -27 79 -86 233 -106 276
-28 63 -106 260 -126 319 -11 33 -26 76 -35 95 -8 19 -18 44 -23 55 -8 19 -28
64 -103 225 -16 36 -38 83 -48 105 -62 139 -134 284 -158 319 -16 23 -42 69
-59 103 -18 34 -37 65 -43 68 -9 6 -61 80 -94 134 -5 9 -29 36 -53 59 -29 29
-42 50 -40 65 2 16 -4 23 -27 30 -51 16 -59 22 -78 60 -11 21 -32 44 -48 53
-16 8 -53 37 -82 64 -45 43 -58 50 -94 50 -25 0 -48 -6 -57 -16 -21 -20 -21
-21 12 -38 53 -28 234 -217 294 -308 23 -34 57 -82 75 -106 18 -24 33 -48 33
-54 0 -5 21 -34 48 -63 27 -31 57 -80 72 -117 31 -80 56 -125 91 -163 44 -48
89 -133 130 -245 21 -58 67 -162 103 -231 35 -69 74 -159 86 -200 54 -189 63
-217 85 -264 39 -81 83 -209 95 -274 6 -33 17 -73 25 -88 20 -38 19 -46 -5
-40 -23 6 -27 -8 -5 -16 22 -9 45 -74 52 -144 5 -52 12 -71 44 -113 67 -89 73
-169 13 -154 -30 8 -34 -20 -4 -36 10 -6 25 -29 32 -51 11 -39 10 -43 -12 -61
-33 -27 -75 -21 -75 12 0 19 6 26 25 28 55 8 67 42 15 42 -19 0 -35 -4 -35
-10 0 -5 -7 -10 -15 -10 -12 0 -13 5 -4 27 6 15 14 30 19 33 8 5 13 33 11 57
0 6 -15 18 -32 27 -30 15 -32 14 -82 -19 -38 -26 -54 -32 -64 -23 -19 16 -16
27 16 54 23 19 31 35 33 67 2 34 7 43 25 45 28 4 46 27 39 49 -4 10 -24 38
-46 61 -33 36 -40 51 -40 85 0 45 -29 119 -52 133 -21 14 -40 93 -39 155 2 45
-3 64 -23 95 -39 60 -45 64 -78 64 -43 0 -98 37 -114 77 -17 40 -37 50 -68 34
-37 -21 -49 -47 -32 -79 7 -15 19 -51 25 -81 6 -30 17 -61 24 -69 6 -8 16 -53
20 -101 13 -120 12 -142 -3 -177 -13 -30 -12 -34 23 -80 80 -107 108 -152 109
-180 1 -49 -13 -187 -24 -222 -8 -26 -6 -38 11 -66 24 -38 27 -74 8 -100 -12
-16 -14 -16 -38 3 -14 11 -34 40 -43 66 -15 39 -21 45 -47 45 -32 0 -37 11
-13 31 14 11 54 81 54 94 0 3 -5 5 -11 5 -6 0 -26 12 -45 26 -34 26 -37 44 -7
44 23 0 42 30 43 68 0 27 -4 32 -23 32 -13 0 -32 -9 -42 -20 -23 -25 -29 -19
-33 33 -1 23 -3 61 -5 84 -1 23 -6 45 -10 49 -4 4 -7 15 -7 25 0 23 -34 42
-63 34 -12 -3 -44 -16 -70 -27 -42 -19 -49 -20 -63 -7 -8 8 -19 44 -25 80 -6
42 -16 70 -29 81 -11 9 -20 19 -20 23 0 14 66 -9 100 -35 47 -37 89 -50 118
-37 17 8 31 6 57 -6 33 -16 35 -16 35 2 0 10 -7 21 -15 25 -20 7 -20 79 -1
134 13 37 13 42 -3 56 -10 9 -34 16 -54 16 -44 0 -50 21 -12 46 18 12 23 22
19 39 -3 13 -1 26 5 29 17 11 13 48 -7 72 -23 28 -62 41 -62 21 0 -8 -28 -36
-61 -63 -34 -27 -66 -56 -73 -64 -17 -23 -63 -50 -85 -50 -10 0 -34 6 -52 14
l-34 14 30 4 c17 1 30 8 30 15 0 23 16 27 22 5 5 -22 27 -30 37 -13 3 4 -1 17
-8 27 -12 16 -26 19 -82 17 -75 -2 -91 -11 -75 -41 6 -11 11 -30 11 -41 0 -10
12 -28 27 -39 16 -11 25 -24 21 -28 -4 -4 -14 -1 -23 6 -9 7 -27 10 -45 6 -17
-3 -30 -1 -30 4 0 38 -81 53 -131 23 -37 -22 -34 -46 6 -53 22 -4 31 -11 33
-28 6 -42 -3 -52 -37 -39 -24 9 -39 9 -63 -1 -23 -8 -35 -9 -45 -1 -15 13 -17
55 -3 64 17 10 11 43 -10 58 -11 7 -31 31 -46 52 -25 37 -25 40 -8 52 10 7 25
13 35 13 26 0 92 -30 112 -51 20 -21 53 -27 41 -7 -5 7 -30 40 -57 73 -78 93
-110 112 -137 80 -18 -22 -50 -19 -50 4 0 10 -7 25 -16 32 -12 10 -14 23 -9
54 14 82 7 128 -25 158 -17 15 -30 33 -30 39 0 18 -31 47 -44 42 -7 -3 -17 6
-24 20 -8 18 -8 28 3 43 13 17 15 16 49 -16 20 -19 39 -44 42 -55 3 -12 17
-33 31 -47 14 -16 27 -44 30 -68 4 -29 14 -49 35 -66 16 -14 33 -25 36 -25 12
0 62 69 77 104 8 18 11 43 8 54 -4 17 -1 22 13 22 15 0 16 2 5 9 -20 13 4 71
30 71 25 0 50 -39 43 -67 -8 -29 20 -63 50 -63 12 0 39 9 61 20 22 11 47 20
57 20 26 0 68 22 68 35 0 6 -7 20 -15 31 -22 28 -18 44 10 44 31 0 56 -43 37
-62 -22 -22 -12 -31 29 -25 23 3 51 15 64 27 31 29 80 39 159 33 68 -6 108 9
149 55 31 34 13 49 -53 45 -49 -3 -60 -1 -60 11 0 32 51 43 103 21 13 -5 17
-2 17 12 0 22 -35 63 -54 63 -27 0 -46 38 -57 113 -6 42 -18 82 -25 88 -23 19
-29 1 -10 -31 19 -34 14 -50 -15 -50 -22 0 -39 35 -39 79 0 33 -31 51 -90 51
-29 0 -40 4 -40 15 0 11 11 15 40 15 32 0 40 4 40 19 0 10 -9 30 -20 44 -12
14 -27 43 -34 64 -11 32 -19 39 -57 50 -51 15 -79 44 -79 83 0 33 -24 56 -55
52 -15 -2 -25 5 -33 23 -7 15 -9 31 -6 37 5 7 2 8 -5 3 -8 -4 -24 4 -41 21
-15 16 -36 35 -45 43 -9 7 -15 22 -12 32 3 10 -4 35 -14 56 -10 20 -19 47 -19
60 0 13 -12 31 -30 45 -17 12 -30 28 -30 35 0 17 17 17 24 1 3 -7 4 -2 3 12
-1 14 -8 25 -17 25 -22 0 -60 64 -60 102 0 29 -5 36 -32 48 -40 16 -78 65 -78
99 0 14 -4 28 -10 31 -5 3 -10 17 -10 30 0 14 -11 32 -26 44 -51 40 -76 15
-29 -29 24 -22 35 -47 16 -36 -4 3 -16 -3 -25 -13 -15 -16 -18 -46 -21 -193
-4 -213 -3 -198 -15 -198 -14 0 -37 59 -45 117 -5 39 -3 52 9 62 18 15 21 47
6 56 -5 3 -10 19 -10 35 0 15 -10 59 -22 96 -12 38 -22 78 -23 89 -5 73 -20
138 -35 158 -24 30 -70 148 -70 178 0 34 22 62 45 58 12 -3 25 -22 37 -54 13
-39 36 -68 100 -130 82 -80 158 -166 158 -181 0 -4 12 -23 26 -41 33 -43 100
-73 164 -73 40 0 55 -5 83 -30 19 -16 44 -30 55 -30 34 0 86 -27 121 -64 19
-20 42 -36 52 -36 15 0 147 -92 160 -111 3 -5 27 -15 55 -23 70 -20 145 -49
174 -68 14 -9 39 -20 55 -23 52 -12 119 -38 158 -63 22 -13 73 -32 115 -43 77
-20 152 -46 227 -80 22 -10 67 -26 100 -35 33 -10 74 -26 90 -36 17 -10 41
-23 55 -28 14 -6 59 -27 100 -47 41 -19 100 -47 130 -61 30 -14 67 -34 82 -44
14 -10 37 -18 50 -18 25 0 131 -52 163 -80 11 -10 49 -31 85 -48 82 -39 221
-120 279 -163 24 -17 59 -36 78 -42 18 -6 67 -38 108 -71 68 -55 141 -107 230
-161 18 -11 46 -30 62 -43 100 -81 129 -102 139 -102 6 0 38 -28 71 -63 69
-72 76 -91 117 -309 19 -102 34 -152 55 -191 17 -29 28 -61 25 -72 -2 -11 0
-40 5 -65 6 -31 9 52 10 270 0 201 -3 310 -9 300 -7 -11 -12 -12 -21 -3 -14
14 -2 36 17 29 12 -4 14 16 14 114 0 103 -2 119 -15 114 -9 -4 -32 10 -60 35
-24 22 -49 41 -55 41 -5 0 -10 7 -10 15 0 8 5 15 11 15 19 0 104 -43 116 -59
10 -13 12 928 13 4529 0 3026 -3 4541 -10 4534 -7 -7 -11 -1530 -12 -4509 -3
-3848 -5 -4499 -17 -4503 -10 -3 -12 1 -8 19 10 35 8 8982 -1 8991 -4 4 -2382
7 -5283 6 l-5274 -3 -5 -4790 c-3 -2635 -9 -4796 -13 -4803 -5 -7 -4 -18 1
-25 9 -10 16 -101 12 -157 0 -8 2 -35 5 -60 5 -31 2 -51 -8 -64 -29 -40 -36
-9 -35 157 0 89 0 2319 -1 4955 l-1 4792 -30 0 c-17 0 -33 -6 -35 -13z m4359
-623 c34 -13 5 -54 -39 -54 -21 0 -30 27 -15 45 13 16 29 19 54 9z m1636 -584
c0 -12 -50 -19 -57 -8 -3 6 0 14 7 18 14 9 50 2 50 -10z m-225 -70 c10 -11 16
-22 13 -25 -9 -9 -79 25 -73 35 10 16 41 11 60 -10z m165 -41 c12 -6 12 -9 -5
-14 -11 -4 -30 -11 -43 -16 -40 -16 -69 -11 -75 13 -4 13 -1 26 6 30 13 9 93
0 117 -13z m690 -26 c2 -2 -1 -12 -6 -21 -14 -22 -113 -30 -125 -10 -17 26 18
45 74 40 28 -2 54 -6 57 -9z m-2555 -63 c0 -11 -13 -16 -47 -18 -37 -2 -48 0
-48 12 0 8 12 17 28 19 45 7 67 3 67 -13z m1075 10 c0 -5 -5 -10 -11 -10 -5 0
-7 5 -4 10 3 6 8 10 11 10 2 0 4 -4 4 -10z m1206 -9 c5 -5 23 -11 39 -13 22
-2 31 -9 33 -25 2 -13 -2 -23 -9 -23 -15 0 -99 53 -99 63 0 10 24 9 36 -2z
m-1278 -28 c3 -18 -2 -23 -17 -23 -21 0 -45 32 -34 44 15 15 48 0 51 -21z
m-905 -8 c1 -5 -6 -11 -15 -13 -11 -2 -18 3 -18 13 0 17 30 18 33 0z m572 6
c3 -5 1 -13 -5 -16 -15 -9 -43 3 -35 15 8 13 32 13 40 1z m1111 -17 c43 -17
74 -23 92 -19 39 8 80 -9 84 -36 6 -40 30 -45 102 -21 91 30 122 28 202 -14
119 -63 143 -74 155 -74 17 0 144 -68 168 -91 11 -11 21 -26 21 -34 0 -8 15
-17 35 -21 31 -6 74 -42 102 -86 8 -14 105 -78 117 -78 4 0 47 -35 94 -77 48
-43 96 -84 107 -93 48 -37 121 -123 193 -228 112 -164 119 -179 127 -241 4
-31 17 -74 30 -96 13 -22 26 -62 30 -90 4 -27 17 -72 30 -100 13 -27 28 -68
34 -90 6 -22 29 -64 51 -94 35 -47 40 -59 40 -110 1 -31 2 -107 4 -169 3 -100
1 -115 -16 -138 -17 -22 -18 -29 -8 -54 13 -33 2 -77 -29 -113 -12 -15 -13
-23 -3 -51 17 -46 15 -74 -7 -85 -26 -14 -31 -5 -31 56 0 30 -4 62 -9 72 -6
10 -13 53 -17 95 -7 83 2 104 37 85 10 -5 20 -6 22 -2 5 9 -72 245 -91 281 -7
12 -10 27 -7 32 6 9 -10 49 -24 60 -3 3 -12 16 -19 30 -7 14 -44 58 -81 99
l-67 73 -65 3 c-79 3 -147 23 -160 47 -11 20 8 25 39 9 23 -12 129 -31 172
-31 20 0 49 -11 72 -26 21 -15 41 -24 45 -21 3 4 -2 26 -11 51 -13 35 -14 49
-5 69 16 35 7 63 -41 127 -23 30 -47 69 -54 85 -7 17 -38 51 -68 77 -31 26
-73 73 -93 104 -27 40 -49 61 -74 71 -27 10 -43 27 -61 61 -14 26 -35 51 -47
57 -25 11 -30 30 -10 39 6 4 -2 4 -20 1 -25 -3 -42 3 -82 33 -31 23 -46 41
-40 46 17 18 9 24 -47 31 -36 4 -60 3 -67 -4 -15 -15 -80 -14 -95 2 -17 16
-246 21 -274 6 -25 -14 -42 1 -34 28 6 18 21 21 171 29 90 5 166 12 169 15 3
3 3 15 -1 27 -4 18 -13 22 -43 22 -48 0 -166 53 -201 91 -18 19 -36 29 -56 28
-31 0 -105 -13 -142 -25 l-25 -7 24 34 c13 19 28 37 33 40 23 16 -13 16 -48 0
-39 -18 -72 -46 -107 -89 -10 -12 -29 -22 -42 -22 -14 0 -32 -9 -40 -22 -12
-17 -26 -22 -63 -22 -66 -1 -65 23 2 44 71 22 119 50 108 61 -13 13 -188 -7
-228 -25 -16 -8 -38 -17 -47 -20 -13 -4 -18 -16 -18 -40 0 -43 -14 -53 -45
-32 -30 20 -87 20 -161 1 -69 -18 -133 -6 -141 26 -8 29 -58 52 -83 39 -11 -6
-35 -10 -52 -9 -52 3 -121 -12 -149 -32 -15 -10 -66 -28 -115 -40 -88 -21
-155 -43 -184 -60 -47 -27 -142 -69 -158 -69 -67 0 -217 -78 -284 -148 -43
-44 -120 -83 -135 -68 -3 3 4 17 15 33 10 15 22 38 26 50 4 12 28 41 53 63 26
22 54 53 63 68 11 18 32 32 64 41 42 12 49 12 65 -3 16 -15 25 -16 63 -6 23 7
53 21 65 32 36 33 69 51 168 88 33 13 79 36 102 52 35 24 61 31 157 43 63 8
133 19 155 25 31 8 48 7 73 -3 40 -16 214 -15 273 2 69 19 71 26 19 51 -42 19
-53 21 -87 10 -41 -12 -84 -7 -131 17 -47 24 -191 15 -395 -25 -64 -12 -93
-23 -117 -44 -17 -15 -35 -28 -38 -28 -4 0 -40 -22 -80 -50 -41 -27 -76 -46
-80 -43 -8 8 -8 57 0 77 3 9 16 16 28 16 26 0 46 15 68 51 15 24 15 26 -3 37
-24 15 -52 15 -67 0 -9 -9 -12 -8 -12 5 0 9 -3 17 -6 17 -16 0 -174 -114 -188
-135 -12 -17 -26 -25 -46 -25 -43 0 -161 -62 -198 -105 -34 -38 -34 -37 -36
-76 -3 -44 -157 -229 -191 -229 -16 0 -20 21 -8 34 4 4 8 33 9 64 2 42 -3 64
-17 83 -19 27 -19 27 4 41 12 8 39 22 60 32 37 17 44 30 29 53 -6 9 -18 3 -42
-22 -19 -19 -40 -35 -48 -35 -32 0 -80 -32 -87 -58 -6 -22 -1 -32 27 -55 l33
-28 -26 -47 c-23 -41 -30 -47 -60 -47 -28 0 -36 6 -53 38 -11 20 -24 37 -31
37 -6 0 -37 -31 -70 -70 -33 -38 -63 -70 -67 -70 -4 0 -8 -13 -8 -30 0 -40 31
-47 89 -21 35 15 48 17 63 8 25 -16 23 -57 -7 -97 -14 -19 -25 -44 -25 -56 0
-24 -34 -54 -60 -54 -21 0 -135 -84 -144 -105 -11 -29 -7 -45 12 -45 9 0 30
-7 46 -15 35 -19 40 -19 33 -1 -8 19 16 38 37 30 21 -8 20 -39 -1 -110 -16
-49 -23 -59 -53 -72 -19 -7 -42 -20 -50 -27 -8 -7 -35 -12 -58 -12 -31 1 -48
-3 -57 -16 -16 -22 -54 -22 -71 1 -12 15 -13 15 -14 -10 0 -14 -3 -34 -6 -43
-6 -14 -2 -15 29 -10 34 7 38 5 48 -21 8 -22 7 -34 -2 -49 -7 -11 -19 -33 -28
-50 -8 -16 -23 -36 -33 -43 -29 -21 -42 -88 -28 -148 9 -35 10 -94 6 -195 -8
-163 -8 -188 -1 -389 5 -135 4 -147 -15 -170 l-20 -25 -26 29 c-20 23 -25 36
-20 60 20 109 19 144 -7 188 -38 65 -127 102 -127 53 0 -8 -4 -15 -10 -15 -13
0 -13 23 2 55 11 24 15 26 52 19 86 -15 107 -3 98 59 -3 23 -12 53 -21 66 -11
17 -14 45 -12 101 1 47 -2 81 -8 85 -6 3 -21 28 -32 56 -24 54 -41 65 -37 22
3 -25 -1 -28 -27 -31 -16 -2 -39 4 -50 13 -20 16 -20 16 0 28 11 7 38 30 60
53 98 99 116 123 117 153 1 21 7 33 20 36 26 9 22 25 -7 25 -17 0 -55 -27
-124 -90 -80 -73 -105 -90 -130 -90 -19 0 -34 6 -38 15 -8 23 5 31 27 17 24
-15 34 -1 25 37 -6 26 -1 33 54 75 32 25 69 61 81 80 11 19 45 56 73 83 68 62
73 70 52 93 -16 18 -15 20 19 34 20 8 36 20 36 26 0 5 14 19 32 30 l32 19 27
-25 c15 -15 32 -23 39 -19 7 4 2 15 -15 31 -34 31 -96 32 -145 2 -19 -12 -39
-22 -45 -22 -15 -1 -75 -39 -75 -47 0 -4 -16 -17 -35 -29 -23 -14 -38 -34 -46
-58 -12 -42 -46 -65 -74 -50 -17 10 -82 6 -122 -7 -20 -6 -23 -4 -23 17 0 35
18 54 82 86 37 19 71 46 97 78 56 70 146 138 206 154 49 13 84 32 177 94 50
33 57 46 34 65 -16 13 -46 99 -46 131 0 11 -7 34 -15 50 -12 24 -13 42 -5 102
11 77 23 97 82 134 58 37 189 104 204 104 7 0 28 18 45 40 35 43 54 49 85 25
27 -21 37 -18 23 6 -13 25 -7 32 46 59 28 14 42 17 50 9 7 -8 3 -15 -12 -26
-13 -9 -23 -22 -23 -30 0 -7 -10 -18 -22 -23 -21 -8 -20 -9 9 -9 17 -1 35 4
38 9 3 6 15 10 26 10 24 0 35 25 20 44 -8 10 -7 21 4 42 14 27 13 30 -8 46
-22 17 -22 17 -2 32 25 19 45 20 71 2 31 -22 233 -6 299 23 28 13 75 27 105
32 30 5 73 18 95 29 21 11 53 20 70 20 43 0 195 26 229 39 16 7 61 10 100 9
79 -3 263 25 304 46 46 23 241 41 296 27 45 -11 51 -10 90 13 52 32 73 32 152
0z m973 -10 c9 -9 -15 -22 -51 -28 -30 -6 -39 -3 -47 12 -6 11 -7 23 -3 26 7
7 93 -2 101 -10z m-2229 -28 c0 -8 -4 -17 -9 -21 -12 -7 -24 12 -16 25 9 15
25 12 25 -4z m-580 -31 c0 -8 -4 -15 -9 -15 -13 0 -22 16 -14 24 11 11 23 6
23 -9z m2994 -11 c23 -23 20 -53 -8 -66 -39 -17 -59 -4 -51 34 4 18 9 36 12
41 7 12 31 8 47 -9z m-384 -9 c14 -9 12 -35 -2 -35 -7 0 -24 12 -37 26 l-24
25 26 -5 c15 -2 31 -7 37 -11z m-2312 -7 c-3 -7 -16 -20 -30 -28 -22 -12 -29
-12 -42 -1 -12 10 -14 17 -5 27 15 18 82 19 77 2z m-715 -123 c-2 -27 -43 -82
-43 -58 0 7 5 15 10 18 6 3 10 22 10 41 0 24 4 34 13 31 6 -2 11 -17 10 -32z
m3532 5 c23 -26 13 -50 -22 -50 -42 0 -57 14 -49 44 8 32 44 35 71 6z m-3437
-2 c-3 -7 -11 -13 -18 -13 -7 0 -15 6 -17 13 -3 7 4 12 17 12 13 0 20 -5 18
-12z m3182 2 c0 -5 -7 -10 -15 -10 -8 0 -15 5 -15 10 0 6 7 10 15 10 8 0 15
-4 15 -10z m-2912 -42 c20 -20 14 -25 -42 -32 -41 -6 -66 -16 -98 -42 -24 -18
-48 -34 -54 -34 -6 0 -28 -13 -50 -29 -30 -23 -42 -27 -52 -18 -11 8 -13 8
-12 -4 4 -25 0 -35 -20 -57 -23 -25 -57 -28 -84 -9 -27 20 -11 40 70 88 41 24
91 54 112 66 20 13 53 26 72 29 19 4 38 12 42 18 8 12 64 34 89 35 8 1 20 -4
27 -11z m-464 -43 c26 -20 14 -63 -20 -71 -17 -4 -29 -2 -35 7 -14 23 -10 57
9 68 22 13 23 13 46 -4z m3753 -27 c7 -6 13 -19 13 -30 0 -18 -5 -20 -31 -14
-17 3 -38 6 -45 6 -14 0 -20 50 -8 63 7 7 52 -9 71 -25z m-3897 6 c0 -9 -5
-14 -12 -12 -18 6 -21 28 -4 28 9 0 16 -7 16 -16z m18 -73 c3 -8 -1 -12 -9 -9
-7 2 -15 10 -17 17 -3 8 1 12 9 9 7 -2 15 -10 17 -17z m3973 -31 c38 -28 29
-52 -20 -48 -33 3 -36 6 -39 36 -4 39 15 43 59 12z m-1038 -41 c-17 -17 -37
-1 -22 17 8 10 15 12 23 4 7 -7 7 -13 -1 -21z m-3058 -25 c0 -19 -6 -30 -17
-32 -14 -3 -18 3 -18 26 0 16 3 32 7 36 14 13 28 -1 28 -30z m253 -2 c2 -7 -6
-12 -18 -12 -25 0 -101 -63 -113 -94 -10 -26 -30 -7 -25 25 2 16 16 30 43 44
23 11 52 28 65 38 26 18 41 18 48 -1z m1847 -10 c11 -25 31 -33 88 -38 21 -1
56 -12 79 -24 22 -11 48 -20 57 -19 31 3 41 -1 41 -16 0 -11 -11 -15 -39 -15
-22 0 -43 -5 -46 -11 -4 -5 -18 -15 -32 -20 -25 -9 -25 -10 -7 -24 22 -16 90
-19 149 -5 24 5 56 5 79 0 50 -11 106 13 106 45 0 12 8 29 18 38 18 16 144 77
159 77 9 0 35 -52 29 -57 -2 -3 -13 1 -24 8 -18 11 -23 10 -41 -12 -11 -13
-20 -29 -21 -36 0 -7 -13 -22 -30 -35 -16 -12 -30 -30 -30 -40 0 -42 -31 -78
-91 -108 l-60 -29 -76 24 c-41 14 -86 25 -98 25 -14 0 -37 15 -56 35 -38 40
-87 59 -127 50 -22 -4 -33 0 -52 20 l-24 25 32 12 c37 14 39 19 12 43 -14 13
-26 15 -47 9 -15 -4 -64 -8 -108 -9 -72 0 -86 -4 -126 -30 -25 -17 -44 -36
-41 -43 2 -7 -5 -12 -18 -12 -12 0 -30 -5 -42 -11 -11 -6 -22 -8 -25 -6 -10
11 17 45 41 51 21 5 24 11 24 56 0 74 9 81 104 75 44 -2 87 -10 96 -17 12 -11
19 -7 40 20 22 28 31 33 61 30 26 -2 39 -9 46 -26z m781 -7 c3 -8 14 -17 24
-20 27 -9 33 -39 16 -74 -14 -27 -14 -31 0 -45 8 -9 13 -20 10 -25 -5 -8 -58
-23 -96 -26 -32 -4 -35 -6 -21 -14 20 -13 2 -34 -42 -52 -18 -7 -39 -19 -49
-26 -9 -8 -29 -13 -45 -11 -23 2 -28 8 -28 32 0 25 5 30 44 42 24 7 53 21 65
32 11 11 38 23 58 26 64 12 88 55 43 80 -28 15 -35 28 -26 44 5 8 6 23 4 33
-4 14 0 19 16 19 12 0 24 -7 27 -15z m1320 -16 c24 -15 34 -28 34 -46 0 -19
-4 -24 -16 -19 -9 3 -22 6 -30 6 -13 0 -54 55 -54 73 0 14 33 7 66 -14z m-256
-9 c0 -5 -4 -10 -10 -10 -5 0 -10 5 -10 10 0 6 5 10 10 10 6 0 10 -4 10 -10z
m-3927 -100 c3 -10 -1 -27 -8 -36 -11 -16 -14 -15 -29 13 -12 24 -13 33 -3 36
24 10 35 7 40 -13z m4305 -21 c17 -31 32 -48 81 -86 22 -18 23 -22 12 -56 -13
-39 -31 -50 -31 -18 0 11 -11 32 -24 48 -12 15 -28 38 -35 51 -6 12 -20 22
-30 22 -16 0 -41 37 -41 60 0 6 11 10 25 10 19 0 31 -9 43 -31z m-1048 -59
c21 -33 12 -40 -58 -40 -37 0 -72 4 -77 9 -6 5 -21 11 -35 13 -15 2 -26 11
-28 21 -4 18 3 19 92 15 72 -2 99 -7 106 -18z m-1781 -12 c11 -11 18 -25 15
-30 -8 -12 13 -10 35 4 20 12 56 4 47 -11 -7 -11 -98 -41 -124 -41 -17 0 -90
26 -101 35 -2 2 7 18 19 34 27 39 78 43 109 9z m2091 2 c0 -5 -4 -10 -10 -10
-5 0 -10 5 -10 10 0 6 5 10 10 10 6 0 10 -4 10 -10z m-3569 -27 c15 -41 -3
-92 -32 -93 -4 0 -10 23 -13 52 -5 37 -4 53 6 59 21 14 28 11 39 -18z m3522 8
c10 -10 -6 -158 -18 -169 -3 -4 -20 1 -36 10 -23 14 -34 15 -48 6 -10 -6 -26
-8 -35 -5 -14 6 -14 10 -4 27 7 11 23 20 35 20 26 0 30 12 8 30 -21 17 -19 37
8 71 18 24 28 28 52 24 16 -3 33 -9 38 -14z m-549 -57 c25 -14 46 -29 46 -34
0 -14 -27 -30 -43 -24 -10 3 -25 -7 -44 -30 -32 -41 -39 -43 -73 -16 -14 11
-41 20 -62 20 -70 0 -54 31 32 61 27 9 59 24 72 33 12 9 23 16 24 16 1 0 22
-12 48 -26z m-1190 -20 c25 -10 8 -24 -30 -24 -33 0 -46 13 -21 23 18 8 33 8
51 1z m361 -14 c3 -5 19 -10 36 -10 16 0 29 -4 29 -10 0 -12 0 -12 -67 -15
-29 -1 -53 0 -53 3 0 9 33 42 41 42 4 0 11 -4 14 -10z m-116 -29 c20 -15 22
-21 12 -39 -15 -28 -86 -87 -129 -108 -48 -23 -260 -27 -285 -5 -26 21 -21 27
31 46 51 19 93 22 159 10 33 -6 49 -4 69 9 24 17 26 17 38 0 15 -20 46 -13 46
11 0 8 -9 20 -20 27 -20 13 -20 14 12 40 39 33 37 32 67 9z m-2136 -13 c8 -12
7 -24 -3 -42 -15 -29 -45 -34 -54 -10 -21 56 27 100 57 52z m817 2 c0 -11 -47
-40 -65 -40 -23 0 -18 16 11 39 23 18 54 19 54 1z m2559 -16 c12 -10 12 -18 1
-43 -11 -28 -40 -44 -40 -22 0 5 -16 15 -36 21 -20 7 -47 22 -61 33 -22 20
-22 22 -6 28 26 11 126 -1 142 -17z m-905 -17 c43 -56 28 -63 -40 -20 -57 37
-63 53 -19 53 27 0 39 -7 59 -33z m264 16 c2 -8 -6 -13 -22 -13 -25 0 -33 10
-19 24 10 10 36 3 41 -11z m1650 5 c-5 -16 -48 -24 -48 -10 0 11 17 20 38 21
8 1 12 -5 10 -11z m-2705 -33 c-3 -13 -53 -20 -53 -7 0 15 13 23 35 20 11 -2
19 -7 18 -13z m-1447 -6 c25 -7 44 -17 44 -25 0 -17 3 -17 -60 -3 -31 7 -50
16 -50 25 0 17 8 17 66 3z m3597 -14 c29 -12 13 -30 -24 -27 -19 1 -48 2 -65
2 -35 0 -53 24 -28 38 16 9 84 1 117 -13z m-2719 -21 c8 -31 -3 -47 -55 -76
-22 -12 -39 -25 -39 -29 0 -9 -176 -119 -190 -119 -6 0 -10 7 -10 15 0 18 -5
19 -30 3 -10 -7 -22 -9 -26 -6 -10 11 6 28 26 28 11 0 24 8 29 19 6 10 25 28
43 39 18 12 51 34 73 51 22 17 61 42 87 55 26 14 49 30 53 36 12 19 33 10 39
-16z m306 16 c0 -5 -5 -10 -11 -10 -5 0 -7 5 -4 10 3 6 8 10 11 10 2 0 4 -4 4
-10z m-1523 -26 c3 -8 1 -20 -6 -27 -14 -14 -47 15 -37 32 10 16 36 13 43 -5z
m229 -13 c-3 -5 1 -11 9 -15 8 -3 18 2 23 10 7 12 14 13 36 4 42 -15 26 -34
-33 -40 -44 -5 -59 -12 -82 -38 -16 -18 -34 -32 -41 -32 -9 0 -9 3 0 12 7 7
12 24 12 38 0 37 27 70 56 70 14 0 23 -4 20 -9z m4290 -16 c7 -18 -12 -45 -32
-45 -9 0 -14 11 -14 30 0 23 4 30 20 30 11 0 23 -7 26 -15z m-446 -25 c0 -11
-7 -20 -15 -20 -15 0 -21 21 -8 33 12 13 23 7 23 -13z m-388 -67 c37 -40 52
-69 42 -84 -6 -10 -84 49 -84 63 0 5 -12 20 -27 33 l-28 24 30 1 c23 0 40 -10
67 -37z m-3824 5 c-6 -18 -28 -21 -28 -4 0 9 7 16 16 16 9 0 14 -5 12 -12z
m266 -20 c7 -5 -2 -20 -24 -43 -38 -39 -56 -34 -45 14 7 35 47 70 54 49 2 -7
9 -16 15 -20z m3823 -15 c12 -17 11 -23 -5 -43 -24 -29 -42 -19 -42 24 0 51
20 60 47 19z m-3967 -14 c0 -10 -7 -19 -15 -19 -15 0 -21 31 -9 43 11 10 24
-3 24 -24z m804 -38 c3 -5 0 -11 -8 -14 -15 -6 -26 1 -26 15 0 11 27 10 34 -1z
m-916 -84 c3 -63 -10 -75 -27 -26 -17 50 -14 91 7 87 13 -2 18 -15 20 -61z
m3507 46 c48 -11 51 -14 34 -23 -20 -11 -76 8 -84 28 -4 10 0 12 12 7 10 -4
27 -9 38 -12z m446 -19 c25 -13 36 -13 59 -4 31 13 50 7 50 -16 0 -12 -13 -14
-77 -8 -83 7 -98 13 -106 44 -4 16 -2 17 19 10 13 -5 38 -17 55 -26z m798 2
c14 -17 -1 -56 -22 -56 -18 0 -37 21 -37 41 0 15 11 22 41 28 4 0 12 -5 18
-13z m-384 -36 c31 -49 31 -50 0 -50 -15 0 -25 6 -25 14 0 8 -7 22 -16 31 -16
16 -13 45 6 45 5 0 21 -18 35 -40z m-665 26 c0 -11 -19 -15 -25 -6 -3 5 1 10
9 10 9 0 16 -2 16 -4z m1266 -81 c7 -28 0 -55 -15 -55 -5 0 -19 16 -31 35 -18
28 -20 39 -10 50 16 20 48 3 56 -30z m-5068 -101 c3 -33 -19 -71 -36 -60 -15
9 -15 38 0 71 15 32 32 27 36 -11z m4402 -105 c0 -27 -15 -31 -35 -9 -15 16
-15 22 -5 35 15 19 40 3 40 -26z m-3618 -47 c5 -60 -16 -70 -37 -18 -8 19 -23
39 -32 45 -16 8 -15 11 7 29 l25 20 17 -30 c10 -16 19 -37 20 -46z m-682 18
c0 -10 -4 -29 -9 -42 -5 -13 -12 -31 -15 -42 -6 -18 -7 -18 -26 -1 -22 20 -25
41 -10 79 12 33 60 38 60 6z m4870 -13 c0 -13 -9 -32 -20 -42 -19 -17 -20 -17
-30 10 -12 32 1 55 31 55 13 0 19 -7 19 -23z m-4732 -34 c19 -38 -21 -61 -48
-28 -10 12 -10 18 0 30 17 20 37 19 48 -2z m550 -110 c3 -22 -25 -40 -41 -24
-12 12 10 54 26 48 7 -2 13 -13 15 -24z m-574 2 c3 -9 0 -15 -9 -15 -8 0 -15
7 -15 15 0 8 4 15 9 15 5 0 11 -7 15 -15z m4120 -22 c8 -16 26 -39 40 -52 27
-25 34 -65 14 -77 -13 -8 -59 44 -83 93 -9 18 -20 35 -26 39 -8 4 -7 9 2 15
24 15 38 10 53 -18z m-4244 -8 c0 -8 -4 -15 -10 -15 -5 0 -10 7 -10 15 0 8 5
15 10 15 6 0 10 -7 10 -15z m566 -46 c3 -6 2 -15 -4 -21 -7 -7 -14 -3 -21 11
-10 17 -9 21 3 21 8 0 18 -5 22 -11z m3944 -9 c0 -5 -2 -10 -4 -10 -3 0 -8 5
-11 10 -3 6 -1 10 4 10 6 0 11 -4 11 -10z m-4472 -62 c22 -22 14 -46 -19 -53
-42 -9 -57 6 -39 40 14 27 39 32 58 13z m4982 -67 c0 -11 -4 -22 -9 -25 -12
-8 -34 21 -26 34 11 17 35 11 35 -9z m-4875 -70 c-12 -40 -75 -53 -75 -16 0
19 61 58 73 46 5 -5 6 -18 2 -30z m4450 -2 c10 -15 -1 -23 -20 -15 -9 3 -13
10 -10 16 8 13 22 13 30 -1z m-3875 -13 c0 -3 -4 -8 -10 -11 -5 -3 -10 -1 -10
4 0 6 5 11 10 11 6 0 10 -2 10 -4z m-490 -67 c0 -5 -4 -9 -10 -9 -5 0 -10 7
-10 16 0 8 5 12 10 9 6 -3 10 -10 10 -16z m-114 -30 c11 -18 -13 -34 -31 -19
-8 7 -15 16 -15 21 0 13 38 11 46 -2z m624 1 c0 -5 -4 -10 -9 -10 -6 0 -13 5
-16 10 -3 6 1 10 9 10 9 0 16 -4 16 -10z m4216 -61 c19 -16 18 -68 -2 -76 -8
-3 -27 3 -42 14 -15 11 -39 23 -54 27 -30 7 -36 24 -15 45 14 15 92 8 113 -10z
m-4376 -84 c0 -8 -4 -15 -10 -15 -5 0 -10 7 -10 15 0 8 5 15 10 15 6 0 10 -7
10 -15z m4395 -106 c11 -17 -1 -21 -15 -4 -8 9 -8 15 -2 15 6 0 14 -5 17 -11z
m-4857 -21 c-4 -27 -28 -36 -28 -10 0 20 8 32 22 32 5 0 8 -10 6 -22z m4608
-71 c-14 -41 -26 -82 -26 -93 0 -22 -56 -82 -66 -71 -3 3 -1 29 6 56 7 28 9
68 5 90 -6 36 -3 43 21 66 15 14 38 25 50 25 13 0 24 6 25 13 0 9 2 9 6 -1 2
-7 -7 -45 -21 -85z m245 -49 c3 -54 -5 -125 -16 -137 -11 -11 -15 -10 -26 10
-12 22 -20 115 -12 132 7 12 53 8 54 -5z m-4911 -173 c0 -8 -4 -15 -9 -15 -13
0 -22 16 -14 24 11 11 23 6 23 -9z m412 -30 c9 -19 8 -29 -6 -50 -9 -14 -21
-25 -25 -25 -13 0 -34 68 -27 85 9 24 45 18 58 -10z m148 -30 c0 -14 -4 -25
-10 -25 -5 0 -10 11 -10 25 0 14 5 25 10 25 6 0 10 -11 10 -25z m4476 -61 c7
-27 -1 -54 -15 -54 -13 0 -54 68 -47 78 11 18 56 0 62 -24z m-4787 -8 c-2 -2
-17 -6 -34 -9 l-30 -6 30 13 c26 12 47 13 34 2z m4343 -11 c0 -5 -5 -11 -11
-13 -6 -2 -11 4 -11 13 0 9 5 15 11 13 6 -2 11 -8 11 -13z m-4532 -5 c0 -5 -7
-10 -15 -10 -8 0 -15 5 -15 10 0 6 7 10 15 10 8 0 15 -4 15 -10z m4690 -15 c7
-8 21 -15 32 -15 10 0 21 7 24 15 15 37 71 -2 109 -75 13 -25 13 -30 -6 -54
-20 -25 -20 -25 -1 -44 11 -11 22 -26 24 -33 7 -19 -10 -49 -27 -49 -14 0 -18
10 -31 70 -7 38 -45 80 -72 80 -9 0 -23 14 -31 31 -7 17 -21 33 -30 36 -21 8
-51 34 -51 45 0 14 47 9 60 -7z m-4186 -3 c7 -12 -7 -29 -29 -33 -29 -6 -32
-45 -3 -52 15 -4 19 -10 12 -17 -13 -13 -70 3 -98 29 -12 10 -38 22 -58 25
-33 6 -52 24 -30 27 45 8 65 10 115 13 31 2 60 6 64 10 9 8 21 8 27 -2z m-614
-43 c0 -5 -4 -9 -10 -9 -5 0 -10 7 -10 16 0 8 5 12 10 9 6 -3 10 -10 10 -16z
m-53 -15 c-3 -3 -12 -4 -19 -1 -8 3 -5 6 6 6 11 1 17 -2 13 -5z m-72 -59 c0
-23 -5 -30 -19 -30 -28 0 -43 29 -26 50 21 25 45 14 45 -20z m4639 -26 c-8
-14 -34 -11 -34 4 0 8 3 17 7 20 9 9 34 -13 27 -24z m658 14 c8 -33 -3 -53
-27 -53 -35 0 -40 18 -14 46 27 29 35 30 41 7z m-5279 -117 c10 -25 -3 -102
-29 -171 -7 -21 -14 1 -30 96 -9 55 42 120 59 75z m5225 -48 c16 -16 15 -53
-2 -67 -16 -14 -30 0 -39 40 -9 38 15 53 41 27z m0 -151 c2 -19 -1 -27 -13
-27 -19 0 -30 24 -21 46 9 23 31 11 34 -19z m-152 -118 c7 -12 -44 -69 -63
-69 -20 0 -15 17 15 50 30 32 37 36 48 19z m59 -9 c18 -8 17 -9 -7 -9 -15 -1
-30 4 -33 9 -7 12 12 12 40 0z m48 -84 c3 -8 -2 -16 -14 -19 -21 -6 -34 7 -24
23 9 15 32 12 38 -4z m-5183 -32 c0 -16 -26 -19 -35 -3 -4 6 -13 8 -21 5 -8
-3 -14 1 -14 9 0 16 40 25 58 12 6 -5 12 -16 12 -23z m4497 -46 c32 -36 34
-44 18 -88 -21 -60 -53 -100 -78 -100 -56 1 -78 62 -24 68 15 2 27 -1 27 -7 0
-6 5 -11 10 -11 16 0 12 26 -11 69 -19 38 -19 41 -4 65 21 32 36 33 62 4z
m-4425 -23 c-6 -34 -12 -32 -12 6 0 16 4 28 9 25 4 -3 6 -17 3 -31z m652 16
c3 -5 3 -37 -1 -71 l-6 -63 -19 27 c-11 14 -26 26 -33 26 -20 0 -24 22 -9 52
17 34 55 50 68 29z m-714 -38 c0 -18 -28 -29 -42 -15 -7 7 -6 17 2 32 9 17 14
19 26 9 8 -6 14 -18 14 -26z m5064 -97 c20 -31 11 -56 -19 -56 -17 0 -24 7
-29 31 -10 53 19 68 48 25z m-5100 -17 c-3 -5 -10 -7 -15 -3 -5 3 -7 10 -3 15
3 5 10 7 15 3 5 -3 7 -10 3 -15z m234 -13 c3 -16 0 -18 -24 -12 -35 9 -38 12
-29 26 11 17 49 7 53 -14z m92 -42 c0 -8 -4 -12 -10 -9 -5 3 -10 13 -10 21 0
8 5 12 10 9 6 -3 10 -13 10 -21z m-179 -31 c11 -29 6 -37 -28 -48 -20 -5 -23
-3 -23 22 0 28 15 53 32 53 5 0 13 -12 19 -27z m4854 -2 c7 -22 -13 -71 -30
-71 -16 0 -35 21 -35 39 0 18 29 51 46 51 7 0 15 -8 19 -19z m-4572 -129 c16
-14 24 -42 12 -42 -3 0 -14 9 -25 20 -11 11 -27 20 -35 20 -15 0 -20 12 -9 23
8 8 35 -2 57 -21z m4497 18 c0 -5 -9 -14 -20 -20 -22 -12 -27 -1 -8 18 14 14
28 16 28 2z m-4595 -30 c4 -6 -5 -10 -19 -10 -14 0 -26 5 -26 10 0 6 9 10 19
10 11 0 23 -4 26 -10z m-110 -52 c26 -2 30 -8 33 -35 2 -24 -2 -34 -18 -43
-12 -6 -22 -10 -23 -8 -1 2 -12 23 -25 48 -25 50 -28 67 -9 52 6 -6 26 -12 42
-14z m4659 -55 c5 -11 1 -22 -10 -30 -23 -17 -29 -16 -44 2 -10 12 -10 18 0
30 17 20 46 19 54 -2z m-4334 -48 c0 -13 -4 -14 -20 -5 -11 6 -20 13 -20 15 0
3 9 5 20 5 11 0 20 -7 20 -15z m4260 -43 c0 -17 -60 -52 -87 -51 -28 0 -28 0
-5 10 13 5 35 18 49 29 27 21 43 25 43 12z m-4381 -16 c7 -9 8 -17 2 -20 -14
-9 -41 4 -41 20 0 18 24 18 39 0z m-199 -17 c0 -6 -4 -7 -10 -4 -5 3 -10 11
-10 16 0 6 5 7 10 4 6 -3 10 -11 10 -16z m99 -45 c35 -29 38 -45 15 -64 -12
-11 -18 -10 -33 6 -20 21 -36 84 -22 84 5 0 23 -12 40 -26z m4432 -34 c21 -12
25 -40 7 -58 -19 -19 -44 -14 -61 11 -15 22 -15 22 -50 3 -35 -18 -67 -17 -67
4 0 5 8 10 18 10 10 0 22 3 26 8 6 6 76 28 99 31 5 1 17 -4 28 -9z m-4176 -39
c10 -17 -15 -23 -31 -7 -14 15 -14 16 5 16 11 0 22 -4 26 -9z m243 -18 c2 -8
-6 -13 -22 -13 -17 0 -26 5 -26 16 0 19 41 16 48 -3z m3842 -84 c0 -25 -24
-51 -42 -44 -9 4 -22 19 -28 35 -10 24 -9 33 7 54 l18 24 22 -26 c12 -15 22
-34 23 -43z m-104 37 c3 -8 -3 -23 -14 -34 -21 -21 -21 -45 0 -89 8 -17 8 -26
-2 -38 -21 -25 -38 -17 -61 27 -12 24 -29 49 -38 55 -14 11 -12 16 19 43 54
47 87 60 96 36z m-4102 -2 c21 -8 20 -33 -3 -64 -16 -20 -21 -22 -35 -11 -19
16 -20 34 -6 62 11 20 19 23 44 13z m3886 -64 c0 -5 -11 -10 -25 -10 -14 0
-25 5 -25 10 0 6 11 10 25 10 14 0 25 -4 25 -10z m399 -34 c8 -10 9 -16 2 -21
-13 -7 -51 12 -51 25 0 15 36 12 49 -4z m-4056 -85 c-2 -76 -12 -89 -42 -58
-19 21 -20 28 -10 51 10 22 9 29 -4 44 -25 27 -21 31 21 28 l37 -2 -2 -63z
m3698 24 c-1 -15 -24 -12 -29 3 -3 9 2 13 12 10 10 -1 17 -7 17 -13z m-36 -55
c3 -5 1 -10 -4 -10 -6 0 -11 5 -11 10 0 6 2 10 4 10 3 0 8 -4 11 -10z m73 -28
c5 -30 -26 -42 -44 -17 -23 31 -17 47 14 43 19 -2 28 -9 30 -26z m-3614 -182
c-9 -89 -18 -97 -60 -55 -45 45 -47 88 -5 109 16 9 32 23 36 33 6 17 7 17 21
-2 11 -14 13 -35 8 -85z m201 41 c-10 -16 -25 -3 -25 22 0 20 1 20 16 5 9 -9
13 -21 9 -27z m3335 33 c0 -15 -22 -44 -31 -39 -11 7 7 45 21 45 6 0 10 -3 10
-6z m-3340 -85 c0 -5 -7 -9 -15 -9 -15 0 -20 12 -9 23 8 8 24 -1 24 -14z
m3307 -45 c8 -20 -8 -48 -30 -52 -18 -4 -34 39 -22 57 10 17 45 13 52 -5z
m-3196 -116 c18 -30 20 -44 15 -148 -7 -170 -17 -304 -23 -313 -12 -19 -24 10
-22 52 1 25 2 81 1 124 -2 73 -3 78 -28 87 -14 6 -23 14 -19 20 3 5 11 7 18 4
9 -3 16 14 23 53 15 82 12 89 -46 88 -56 0 -80 15 -61 39 12 15 39 22 94 25
21 1 32 -7 48 -31z m-257 -51 c0 -9 -1 -35 -2 -58 -3 -61 -22 -37 -22 27 0 40
4 54 13 52 6 -3 12 -12 11 -21z m76 -57 c0 -10 -4 -22 -10 -25 -6 -4 -10 7
-10 25 0 18 4 29 10 25 6 -3 10 -15 10 -25z m3298 -7 c-2 -10 -10 -18 -18 -18
-8 0 -16 8 -18 18 -2 12 3 17 18 17 15 0 20 -5 18 -17z m-3302 -88 c4 -9 1
-29 -6 -46 -12 -27 -14 -28 -30 -14 -15 14 -18 14 -30 0 -17 -20 -30 -10 -30
24 0 36 8 43 32 28 16 -10 21 -9 29 6 12 21 28 22 35 2z m-550 -37 c-20 -11
-44 1 -25 12 6 5 19 6 27 3 12 -5 12 -7 -2 -15z m-85 -79 c14 -27 -1 -44 -30
-34 -23 7 -27 25 -9 43 17 17 26 15 39 -9z m628 -1 c10 -26 -7 -228 -20 -242
-5 -5 -14 -4 -22 2 -8 7 -17 9 -20 5 -4 -3 -7 -2 -8 3 0 5 -2 20 -4 34 -1 14
-4 63 -6 110 -4 84 -4 85 19 83 13 -2 25 4 28 12 9 22 23 18 33 -7z m-459 -44
c17 -17 19 -119 4 -219 -9 -59 -9 -60 -40 -57 -28 3 -34 -2 -56 -45 -18 -33
-23 -54 -17 -68 12 -31 10 -42 -7 -60 -15 -15 -18 -14 -31 5 -8 11 -23 20 -34
20 -26 0 -35 26 -19 56 12 21 11 30 -3 59 -10 21 -14 46 -11 64 5 23 2 32 -14
42 -16 10 -19 20 -15 53 8 59 37 88 88 84 37 -3 42 -7 65 -51 19 -39 25 -45
31 -30 3 10 -2 47 -12 83 -17 60 -17 66 -2 78 19 13 50 7 73 -14z m-315 -25
c12 -18 -25 -100 -43 -97 -18 3 -34 54 -26 80 7 24 58 36 69 17z m4150 -89 c3
-5 1 -10 -4 -10 -6 0 -11 5 -11 10 0 6 2 10 4 10 3 0 8 -4 11 -10z m-4279 -54
c-3 -14 -11 -26 -16 -26 -11 0 -14 53 -3 64 13 12 26 -13 19 -38z m537 9 c1
-5 -6 -11 -15 -13 -11 -2 -18 3 -18 13 0 17 30 18 33 0z m3637 -4 c0 -11 -39
-41 -52 -41 -17 0 -7 28 15 38 28 14 37 14 37 3z m-3090 -21 c0 -5 -2 -10 -4
-10 -3 0 -8 5 -11 10 -3 6 -1 10 4 10 6 0 11 -4 11 -10z m-900 -2 c-1 -13 -31
-99 -44 -123 -23 -44 -86 -55 -86 -15 0 19 64 120 83 132 11 7 47 11 47 6z
m4210 -85 c0 -22 -2 -25 -10 -13 -13 20 -13 40 0 40 6 0 10 -12 10 -27z
m-3492 -51 c3 -9 -3 -13 -19 -10 -12 1 -24 9 -27 16 -3 9 3 13 19 10 12 -1 24
-9 27 -16z m3562 -12 c4 -15 14 -26 27 -28 25 -4 58 -38 68 -70 6 -22 5 -23
-37 -20 -41 3 -43 4 -49 42 -4 27 -16 46 -38 63 -38 30 -40 45 -4 41 20 -2 29
-10 33 -28z m-320 10 c0 -5 -7 -10 -15 -10 -8 0 -15 5 -15 10 0 6 7 10 15 10
8 0 15 -4 15 -10z m128 -63 c3 -16 1 -17 -17 -7 -25 13 -28 33 -4 28 10 -2 19
-11 21 -21z m-3218 -3 c-21 -25 -50 -37 -50 -21 0 8 10 19 23 25 32 15 41 14
27 -4z m-274 -121 c-11 -12 -27 13 -20 32 7 17 8 17 17 -3 6 -12 7 -25 3 -29z
m-57 11 c2 -2 -3 -4 -12 -4 -10 0 -26 -5 -37 -12 -24 -15 -37 -4 -20 17 11 13
53 12 69 -1z m3921 -11 l21 -27 -23 -18 c-32 -25 -43 -18 -46 30 -4 51 15 56
48 15z m-3760 -58 c0 -21 -17 -27 -24 -9 -10 25 -7 34 9 28 8 -4 15 -12 15
-19z m-205 -147 c-8 -45 -19 -60 -41 -51 -25 10 -27 44 -3 69 36 39 52 32 44
-18z m3945 -34 c0 -9 -5 -14 -12 -12 -18 6 -21 28 -4 28 9 0 16 -7 16 -16z
m373 -8 c16 -12 16 -16 3 -29 -13 -13 -13 -17 2 -38 9 -13 21 -27 26 -31 7 -5
6 -8 -3 -8 -21 0 -51 30 -51 52 0 10 -11 24 -25 30 -14 6 -25 17 -25 25 0 17
49 17 73 -1z m-4203 -37 c0 -12 -7 -19 -19 -19 -27 0 -34 15 -21 40 9 17 14
19 26 9 8 -6 14 -20 14 -30z m-215 -59 c9 -15 -14 -40 -36 -40 -22 0 -33 16
-25 35 6 17 52 20 61 5z m4245 -11 c0 -5 -4 -9 -10 -9 -5 0 -10 7 -10 16 0 8
5 12 10 9 6 -3 10 -10 10 -16z m394 5 c28 -11 19 -42 -15 -49 -42 -9 -58 13
-28 38 24 19 22 19 43 11z m-4871 -108 c8 -21 -3 -56 -18 -56 -16 0 -48 48
-40 60 9 15 52 12 58 -4z m4996 -20 c7 -8 8 -16 4 -19 -12 -7 -53 11 -53 23 0
15 36 12 49 -4z m99 -38 c-2 -6 -12 -16 -21 -22 -13 -8 -20 -7 -27 4 -16 24
-12 30 21 30 19 0 29 -4 27 -12z m-5324 -41 c25 -19 10 -49 -23 -45 -29 3 -42
35 -19 49 17 12 21 11 42 -4z m5547 -37 c28 -15 23 -27 -13 -35 -24 -6 -35 -3
-44 10 -8 10 -11 22 -8 26 7 12 41 11 65 -1z m-5692 -22 c-9 -16 -14 -19 -17
-9 -2 7 2 17 9 22 20 13 21 11 8 -13z m4211 9 c0 -8 -11 -19 -25 -25 -22 -10
-25 -9 -25 7 0 10 3 21 7 24 12 12 43 7 43 -6z m-4430 -21 c0 -15 -18 -31 -26
-23 -7 7 7 37 17 37 5 0 9 -6 9 -14z m5758 -69 c5 -25 -31 -21 -56 6 -12 13
-19 26 -16 30 11 10 69 -18 72 -36z m-5608 18 c15 -18 -4 -75 -26 -75 -16 0
-43 59 -36 78 6 17 47 15 62 -3z m5983 -19 c26 -20 21 -26 -13 -13 -16 6 -30
15 -30 19 0 12 23 9 43 -6z m157 -21 c0 -22 -47 -42 -62 -27 -8 8 -8 15 2 27
16 20 60 20 60 0z m-5048 -10 c0 -5 -5 -11 -11 -13 -6 -2 -11 4 -11 13 0 9 5
15 11 13 6 -2 11 -8 11 -13z m-1472 -35 c0 -5 -4 -10 -10 -10 -5 0 -10 5 -10
10 0 6 5 10 10 10 6 0 10 -4 10 -10z m4631 0 c22 -12 25 -36 5 -43 -18 -7 -56
20 -56 39 0 16 23 18 51 4z m1582 -11 c20 -5 37 -14 37 -19 0 -13 -27 -13 -35
0 -3 5 -20 14 -38 19 -18 5 -25 10 -17 10 8 1 32 -4 53 -10z m-6064 -16 c14
-25 -15 -79 -34 -63 -16 13 -28 57 -20 70 10 16 43 11 54 -7z m1251 -5 c-1
-29 -15 -36 -27 -12 -10 21 -9 24 8 24 10 0 19 -6 19 -12z m60 -8 c0 -4 -6
-13 -14 -19 -11 -9 -15 -8 -20 5 -3 9 -4 20 -1 24 6 10 35 2 35 -10z m5248 0
c17 -11 32 -24 32 -28 0 -13 -75 -33 -94 -26 -25 10 -31 45 -10 61 24 17 33
17 72 -7z m-1966 -15 c0 -5 -5 -11 -11 -13 -6 -2 -11 4 -11 13 0 9 5 15 11 13
6 -2 11 -8 11 -13z m1812 -85 c7 -7 6 -14 0 -20 -12 -12 -74 17 -74 34 0 11
61 -1 74 -14z m-6635 -4 c16 -19 -6 -66 -29 -66 -17 0 -31 42 -22 68 5 16 37
15 51 -2z m4756 -26 c0 -20 -6 -26 -28 -28 -32 -4 -46 20 -26 44 19 24 54 14
54 -16z m2244 7 c6 -8 8 -17 4 -20 -10 -11 -51 -8 -58 3 -17 27 33 42 54 17z
m-2161 -93 c11 -20 4 -54 -12 -54 -6 0 -11 16 -12 35 -1 38 9 45 24 19z m2032
6 c0 -13 -11 -13 -30 0 -12 8 -11 10 8 10 12 0 22 -4 22 -10z m-7100 -12 c-1
-14 -38 -63 -44 -57 -2 2 -1 19 1 37 4 23 11 32 24 32 11 0 19 -6 19 -12z
m7620 -23 c0 -11 -11 -15 -40 -15 -63 0 -48 25 18 29 13 1 22 -5 22 -14z
m-6201 -48 c6 -8 8 -16 5 -20 -10 -9 -34 4 -34 19 0 18 14 18 29 1z m451 -7
c0 -5 -4 -10 -10 -10 -5 0 -10 5 -10 10 0 6 5 10 10 10 6 0 10 -4 10 -10z
m3106 -31 c18 -36 8 -55 -25 -44 -16 5 -21 15 -21 41 0 44 24 45 46 3z m-5200
-4 c2 -5 -8 -23 -21 -40 -19 -23 -25 -26 -30 -14 -9 25 13 71 32 67 9 -2 18
-7 19 -13z m5768 0 c3 -9 -3 -24 -14 -35 -16 -16 -25 -18 -40 -10 -24 13 -25
18 -3 42 20 22 49 24 57 3z m2265 1 c14 -16 -1 -31 -42 -41 -23 -6 -27 -4 -27
14 0 13 9 25 23 31 30 12 33 12 46 -4z m-141 -28 c3 -15 -1 -16 -19 -9 -32 11
-38 34 -8 29 13 -1 25 -11 27 -20z m-6148 -13 c0 -9 -10 -16 -25 -16 -14 -1
-29 -2 -35 -3 -20 -2 -10 19 12 26 38 10 48 9 48 -7z m280 5 c12 -8 9 -10 -12
-10 -15 0 -30 5 -33 10 -8 13 25 13 45 0z m95 -25 c-21 -17 -37 -15 -43 3 -2
8 8 12 30 12 31 -1 32 -1 13 -15z m3150 -11 c13 -20 16 -38 11 -71 -4 -31 -1
-51 10 -68 17 -27 15 -80 -3 -80 -7 0 -24 15 -38 34 -19 27 -25 47 -25 88 0
31 4 53 11 53 9 0 7 16 -8 58 -9 23 25 12 42 -14z m215 -58 c-7 -7 -10 6 -9
40 l1 49 9 -39 c6 -26 6 -43 -1 -50z m-405 42 c14 -6 25 -17 25 -24 0 -24 -21
-25 -45 -2 -39 37 -30 49 20 26z m-5197 -21 c2 -11 -3 -17 -16 -17 -26 0 -34
11 -20 27 14 17 32 12 36 -10z m-108 -9 c-1 -17 -35 -58 -49 -58 -16 0 -14 22
5 48 16 24 44 30 44 10z m5970 -7 c14 -28 13 -58 -4 -64 -17 -7 -66 43 -66 66
0 25 56 23 70 -2z m2376 11 c18 -12 24 -42 14 -63 -16 -28 -50 -8 -50 30 0 38
12 49 36 33z m-5998 -20 c2 -7 -6 -12 -17 -12 -21 0 -27 11 -14 24 9 9 26 2
31 -12z m-2460 -74 c17 -17 15 -48 -4 -55 -9 -3 -25 3 -37 16 -22 22 -22 22
-3 37 24 17 29 17 44 2z m2512 -13 c0 -8 -4 -15 -10 -15 -5 0 -10 7 -10 15 0
8 5 15 10 15 6 0 10 -7 10 -15z m5804 9 c16 -6 23 -44 8 -44 -5 0 -19 11 -32
25 -19 20 -20 25 -8 25 9 0 23 -3 32 -6z m416 -15 c15 -26 0 -45 -41 -51 -36
-6 -54 13 -45 47 5 21 12 25 41 25 24 0 37 -6 45 -21z m-8855 1 c7 -12 -22
-70 -35 -70 -11 0 -14 63 -3 73 9 10 31 8 38 -3z m6147 4 c7 -6 -39 -54 -52
-54 -13 0 -13 16 0 41 10 18 40 26 52 13z m-192 -25 c0 -6 -4 -7 -10 -4 -5 3
-10 11 -10 16 0 6 5 7 10 4 6 -3 10 -11 10 -16z m-396 -11 c5 -9 7 -20 3 -24
-12 -13 -62 10 -65 29 -3 15 2 18 24 15 15 -2 32 -11 38 -20z m856 -12 c0 -35
-23 -50 -38 -25 -10 16 -10 24 -1 35 18 22 39 17 39 -10z m-6778 -21 c0 -5 -5
-11 -11 -13 -6 -2 -11 4 -11 13 0 9 5 15 11 13 6 -2 11 -8 11 -13z m1938 -66
c0 -29 -18 -32 -35 -5 -11 16 -14 33 -10 47 l8 23 18 -23 c11 -13 19 -31 19
-42z m-1782 19 c4 -20 -34 -61 -48 -53 -14 9 -12 49 2 63 17 17 42 11 46 -10z
m6550 5 c-2 -10 -12 -19 -23 -22 -11 -2 -23 -8 -27 -14 -4 -6 -10 -8 -14 -5
-7 7 45 57 59 58 5 0 7 -8 5 -17z m2572 -24 c0 -5 -4 -9 -10 -9 -5 0 -10 7
-10 16 0 8 5 12 10 9 6 -3 10 -10 10 -16z m-6720 -26 c0 -28 -24 -79 -52 -110
-13 -14 -19 -30 -15 -43 8 -31 -16 -80 -62 -128 -45 -46 -90 -56 -127 -26 -19
15 -18 15 4 11 12 -3 41 5 65 17 38 21 42 26 39 58 -2 22 2 39 12 48 24 19 19
37 -14 57 -42 24 -46 47 -17 85 17 21 42 37 79 48 65 20 88 16 88 -17z m3430
-42 c1 -14 7 -37 15 -51 17 -29 19 -60 5 -60 -5 0 -10 6 -10 13 0 8 -11 20
-24 27 -31 16 -33 23 -28 90 l4 54 19 -23 c11 -13 19 -35 19 -50z m150 54 c15
-18 5 -35 -21 -35 -12 0 -19 7 -19 18 0 33 20 42 40 17z m330 -10 c0 -8 -7
-15 -15 -15 -8 0 -15 7 -15 15 0 8 7 15 15 15 8 0 15 -7 15 -15z m347 -18 c-7
-21 -32 -13 -35 11 -3 21 -1 22 18 12 12 -6 19 -17 17 -23z m-4097 -6 c0 -23
-16 -36 -25 -21 -9 14 1 40 15 40 5 0 10 -9 10 -19z m-2782 -33 c13 -17 -2
-56 -24 -65 -21 -8 -44 21 -44 54 0 19 5 23 29 23 16 0 33 -6 39 -12z m6258
-9 c18 -20 12 -48 -12 -56 -16 -5 -54 36 -54 57 0 27 41 26 66 -1z m394 -8 c0
-37 -19 -50 -37 -26 -22 31 -16 55 12 55 21 0 25 -5 25 -29z m2944 13 c9 -8
16 -24 16 -33 0 -25 -58 -37 -79 -17 -12 13 -12 18 3 40 19 30 38 33 60 10z
m-3654 -13 c0 -11 -39 -25 -47 -18 -3 3 -2 10 2 16 8 13 45 15 45 2z m540 -11
c0 -5 -5 -10 -11 -10 -5 0 -7 5 -4 10 3 6 8 10 11 10 2 0 4 -4 4 -10z m-750
-30 c0 -5 -4 -10 -10 -10 -5 0 -10 5 -10 10 0 6 5 10 10 10 6 0 10 -4 10 -10z
m-6145 -40 c3 -5 -3 -10 -15 -10 -12 0 -18 5 -15 10 3 6 10 10 15 10 5 0 12
-4 15 -10z m161 -15 c8 -20 -16 -77 -30 -72 -6 2 -12 16 -14 31 -5 42 31 76
44 41z m6239 -15 c-5 -8 -11 -8 -17 -2 -6 6 -7 16 -3 22 5 8 11 8 17 2 6 -6 7
-16 3 -22z m-2808 8 c6 -7 13 -23 16 -35 5 -22 4 -22 -24 -7 -17 8 -29 23 -29
34 0 22 22 27 37 8z m-367 -2 c0 -3 -4 -16 -10 -30 -7 -18 -17 -26 -34 -26
-42 0 -42 25 -1 48 20 11 45 16 45 8z m223 -10 c3 -8 -1 -20 -9 -26 -12 -10
-14 -8 -14 14 0 28 14 35 23 12z m-677 -43 c-4 -4 -11 -1 -16 7 -16 25 -11 35
7 17 9 -9 13 -20 9 -24z m4280 26 c10 -17 -13 -36 -27 -22 -12 12 -4 33 11 33
5 0 12 -5 16 -11z m-3921 -29 c-3 -5 -10 -10 -16 -10 -5 0 -9 5 -9 10 0 6 7
10 16 10 8 0 12 -4 9 -10z m3755 0 c0 -5 -4 -10 -10 -10 -5 0 -10 5 -10 10 0
6 5 10 10 10 6 0 10 -4 10 -10z m-183 -32 c-3 -8 -6 -5 -6 6 -1 11 2 17 5 13
3 -3 4 -12 1 -19z m-437 -17 c19 -36 13 -61 -15 -61 -28 0 -52 37 -42 64 9 22
44 20 57 -3z m-6200 0 c0 -6 -11 -23 -25 -38 -20 -23 -24 -25 -25 -10 0 27 18
57 35 57 8 0 15 -4 15 -9z m2315 -62 c9 -17 14 -33 11 -37 -3 -3 -25 1 -48 8
-24 7 -49 14 -57 16 -18 6 -7 16 32 31 45 16 45 16 62 -18z m4395 -29 c0 -5
-4 -10 -10 -10 -5 0 -10 5 -10 10 0 6 5 10 10 10 6 0 10 -4 10 -10z m-6825
-32 c0 -30 -3 -33 -29 -33 -37 0 -42 15 -16 43 30 32 46 28 45 -10z m6222 7
c7 -19 -24 -55 -47 -55 -12 0 -18 8 -18 28 0 15 2 30 5 35 8 13 54 7 60 -8z
m-3897 -20 c0 -8 -4 -15 -9 -15 -13 0 -22 16 -14 24 11 11 23 6 23 -9z m1040
-31 c0 -8 -4 -14 -10 -14 -5 0 -10 9 -10 21 0 11 5 17 10 14 6 -3 10 -13 10
-21z m339 12 c9 -10 9 -16 1 -21 -13 -8 -42 14 -34 26 8 13 20 11 33 -5z
m-3809 -13 c0 -4 -5 -22 -12 -40 l-12 -34 -66 7 c-72 7 -75 8 -65 23 8 15 78
14 93 -1 12 -12 12 -12 27 37 4 15 35 22 35 8z m2570 -33 c31 -30 42 -35 53
-24 8 9 170 13 182 5 6 -4 27 -13 49 -20 32 -11 40 -11 47 0 14 23 19 4 8 -34
-5 -20 -18 -41 -29 -47 -25 -13 -93 -13 -204 2 -84 10 -93 14 -133 50 -43 41
-59 70 -48 88 12 19 44 10 75 -20z m640 -1 c0 -5 -7 -9 -15 -9 -15 0 -20 12
-9 23 8 8 24 -1 24 -14z m3220 -39 c0 -5 -4 -12 -10 -15 -5 -3 -10 -4 -10 -1
0 2 -3 12 -6 20 -5 12 -2 15 10 10 9 -3 16 -10 16 -14z m-2572 -18 c3 -21 1
-22 -17 -12 -26 13 -28 43 -3 38 9 -2 18 -14 20 -26z m-3758 -29 c0 -15 -26
-18 -35 -3 -3 6 -3 20 1 32 6 21 7 21 20 3 8 -10 14 -25 14 -32z m6060 11 c0
-16 -16 -19 -25 -4 -8 13 4 32 16 25 5 -4 9 -13 9 -21z m148 -46 c31 -31 0
-105 -33 -78 -15 12 -21 71 -8 83 10 11 28 8 41 -5z m-2818 -29 c0 -12 -29
-24 -37 -16 -3 4 -3 13 0 21 6 16 37 11 37 -5z m209 -35 c3 -16 1 -17 -13 -5
-19 16 -21 34 -3 29 6 -3 14 -13 16 -24z m-3820 2 c8 -10 9 -25 3 -48 -10 -40
-40 -48 -67 -18 -10 11 -13 20 -7 20 6 0 18 14 27 30 17 33 27 37 44 16z
m3369 -23 c-4 -32 -38 -46 -38 -16 0 20 18 43 33 43 4 0 7 -12 5 -27z m-58
-19 c0 -14 -3 -14 -15 -4 -8 7 -15 14 -15 16 0 2 7 4 15 4 8 0 15 -7 15 -16z
m3026 -25 c11 -18 -13 -34 -31 -19 -8 7 -15 16 -15 21 0 13 38 11 46 -2z
m-6256 -34 c0 -8 -4 -17 -10 -20 -6 -4 -10 5 -10 20 0 15 4 24 10 20 6 -3 10
-12 10 -20z m3400 -15 c0 -5 -4 -10 -10 -10 -5 0 -10 5 -10 10 0 6 5 10 10 10
6 0 10 -4 10 -10z m328 -17 c-4 -22 -22 -20 -26 1 -2 10 3 16 13 16 10 0 15
-7 13 -17z m-1622 -99 c-8 -21 -26 -17 -26 5 0 11 5 32 12 48 l12 28 4 -33 c2
-19 1 -40 -2 -48z m1188 60 c20 -8 20 -20 -1 -95 -16 -58 -18 -61 -44 -55 -25
5 -38 -5 -108 -74 -48 -49 -87 -80 -100 -80 -26 0 -26 12 -4 48 22 34 44 51
58 45 16 -6 38 24 32 41 -10 26 25 57 71 63 39 5 58 26 31 35 -14 5 14 63 33
71 7 3 14 6 15 6 1 1 8 -2 17 -5z m347 -37 c-16 -16 -26 0 -10 19 9 11 15 12
17 4 2 -6 -1 -17 -7 -23z m2459 7 c0 -16 -35 -19 -45 -5 -6 11 26 32 37 25 5
-3 8 -12 8 -20z m-2106 -4 c13 -13 -3 -30 -28 -30 -27 0 -51 24 -41 40 6 10
53 4 69 -10z m2239 4 c11 -11 -5 -34 -23 -34 -22 0 -34 15 -25 30 7 11 38 14
48 4z m1367 -19 c9 -11 9 -22 1 -45 -5 -17 -8 -37 -5 -45 8 -21 -14 -55 -37
-55 -14 0 -25 12 -36 38 -8 20 -22 45 -30 54 -21 23 -9 48 21 48 14 0 28 5 31
10 9 15 41 12 55 -5z m-1520 -55 c0 -5 -7 -10 -15 -10 -8 0 -15 5 -15 10 0 6
7 10 15 10 8 0 15 -4 15 -10z m-2215 -30 c8 -26 -2 -41 -23 -33 -22 8 -31 23
-25 40 8 20 41 16 48 -7z m2943 -17 c-3 -29 -32 -43 -50 -25 -15 15 9 52 33
52 16 0 20 -5 17 -27z m-350 5 c-6 -18 -28 -21 -28 -4 0 9 7 16 16 16 9 0 14
-5 12 -12z m-2964 -14 c4 -10 1 -14 -6 -12 -15 5 -23 28 -10 28 5 0 13 -7 16
-16z m4476 -3 c0 -6 -5 -13 -11 -16 -15 -10 -61 4 -54 15 8 13 65 13 65 1z
m-3910 -42 c0 -20 -15 -26 -25 -9 -9 15 3 43 15 35 5 -3 10 -15 10 -26z m-796
15 c23 -9 20 -24 -4 -24 -11 0 -20 7 -20 15 0 17 2 18 24 9z m2814 -16 c-7
-19 -38 -22 -38 -4 0 10 9 16 21 16 12 0 19 -5 17 -12z m-6173 -39 c10 -15 -4
-61 -17 -57 -18 6 -32 34 -25 52 7 18 32 22 42 5z m7015 -5 c0 -14 -3 -14 -15
-4 -8 7 -15 14 -15 16 0 2 7 4 15 4 8 0 15 -7 15 -16z m1054 0 c7 -19 -2 -37
-15 -29 -12 8 -12 45 0 45 5 0 12 -7 15 -16z m-834 -29 c0 -8 -4 -15 -10 -15
-5 0 -10 7 -10 15 0 8 5 15 10 15 6 0 10 -7 10 -15z m-3510 -5 c0 -5 -7 -10
-15 -10 -8 0 -15 5 -15 10 0 6 7 10 15 10 8 0 15 -4 15 -10z m2800 0 c0 -5 -4
-10 -10 -10 -5 0 -10 5 -10 10 0 6 5 10 10 10 6 0 10 -4 10 -10z m-3262 -52
c15 -15 16 -65 1 -74 -16 -9 -26 6 -32 49 -6 39 7 49 31 25z m2972 -20 c-1
-21 -23 -43 -47 -46 -32 -4 -40 18 -13 40 25 21 60 24 60 6z m208 -16 c4 -26
-31 -48 -47 -29 -8 10 -6 19 5 36 19 26 38 23 42 -7z m1692 13 c10 -12 10 -19
2 -27 -15 -15 -62 5 -62 27 0 20 44 20 60 0z m-1350 -24 c0 -10 -7 -24 -15
-31 -12 -10 -16 -9 -21 4 -3 9 -4 23 0 31 8 21 36 19 36 -4z m330 -74 c0 -51
-4 -61 -33 -94 -42 -46 -61 -38 -51 20 8 50 23 75 47 83 18 6 19 16 2 57 -7
17 -6 18 14 6 17 -12 21 -23 21 -72z m-1030 33 c-21 -14 -30 -12 -30 4 0 18
22 27 35 14 6 -6 5 -12 -5 -18z m-1860 -54 c0 -21 -11 -26 -34 -14 -11 7 -28
11 -38 10 -32 -5 -28 17 4 26 36 10 68 0 68 -22z m3906 -31 c-9 -14 -21 -25
-26 -25 -17 0 -11 26 12 56 19 24 23 25 26 11 2 -10 -4 -29 -12 -42z m-4279
30 c1 -5 -2 -17 -7 -25 -9 -13 -11 -13 -20 0 -15 23 -12 42 7 38 9 -2 18 -7
20 -13z m-3957 -21 c0 -8 -7 -14 -15 -14 -15 0 -21 21 -9 33 10 9 24 -2 24
-19z m6992 -26 c-15 -15 -26 -4 -18 18 5 13 9 15 18 6 9 -9 9 -15 0 -24z
m-2613 -2 c9 -10 9 -16 1 -21 -12 -7 -40 11 -40 26 0 14 26 10 39 -5z m1821
-36 c9 -17 8 -20 -8 -20 -23 0 -56 35 -47 49 8 15 41 -3 55 -29z m-6206 -26
c20 -19 20 -25 1 -50 -15 -19 -15 -19 -35 4 -15 18 -17 28 -10 43 13 23 24 24
44 3z m3156 -16 c0 -5 -7 -8 -15 -8 -17 0 -18 2 -9 25 5 13 8 14 15 3 5 -7 9
-16 9 -20z m3630 8 c0 -22 -29 -41 -42 -28 -9 9 -7 17 7 32 18 20 35 18 35 -4z
m-3048 -1 c0 -5 -5 -11 -11 -13 -6 -2 -11 4 -11 13 0 9 5 15 11 13 6 -2 11 -8
11 -13z m2690 -37 c-9 -9 -15 -9 -24 0 -10 10 -10 15 2 22 20 12 38 -6 22 -22z
m-2269 -17 c-2 -58 -17 -57 -27 2 -6 34 -5 38 11 35 13 -3 18 -12 16 -37z
m3305 10 c3 -8 -1 -12 -9 -9 -7 2 -15 10 -17 17 -3 8 1 12 9 9 7 -2 15 -10 17
-17z m-5008 -11 c9 -17 8 -20 -10 -20 -11 0 -20 2 -20 4 0 2 -3 11 -6 20 -9
24 23 20 36 -4z m4730 5 c0 -8 -4 -15 -10 -15 -5 0 -10 7 -10 15 0 8 5 15 10
15 6 0 10 -7 10 -15z m-86 -40 c-9 -14 -19 -25 -23 -26 -3 0 -40 -2 -81 -4
-76 -4 -114 5 -95 24 16 14 112 24 119 12 7 -11 65 -4 81 10 16 15 16 10 -1
-16z m-876 -28 c-2 -17 -10 -22 -33 -22 -35 0 -47 31 -20 51 25 18 57 0 53
-29z m-3063 13 c0 -8 -8 -16 -17 -18 -13 -2 -18 3 -18 18 0 15 5 20 18 18 9
-2 17 -10 17 -18z m335 -24 c0 -61 -7 -74 -52 -97 -45 -23 -58 -19 -58 19 0
15 -4 41 -9 59 -11 38 -1 50 49 56 74 8 70 11 70 -37z m2890 23 c0 -5 -4 -9
-10 -9 -5 0 -10 7 -10 16 0 8 5 12 10 9 6 -3 10 -10 10 -16z m-2350 -9 c0 -5
-4 -10 -10 -10 -5 0 -10 5 -10 10 0 6 5 10 10 10 6 0 10 -4 10 -10z m-1830
-15 c-7 -8 -19 -15 -26 -15 -8 0 -14 7 -14 15 0 10 10 15 26 15 22 0 25 -2 14
-15z m2198 -12 c2 -8 -6 -13 -22 -13 -17 0 -26 5 -26 16 0 19 41 16 48 -3z
m-678 -3 c0 -5 -4 -10 -10 -10 -5 0 -10 5 -10 10 0 6 5 10 10 10 6 0 10 -4 10
-10z m440 -7 c-1 -10 -7 -29 -15 -43 l-13 -25 -7 27 c-4 16 -5 35 -1 43 8 21
36 19 36 -2z m-1800 -18 c11 -13 7 -15 -23 -15 -20 0 -38 4 -41 9 -15 24 44
30 64 6z m4719 -29 c9 -10 9 -16 1 -21 -12 -7 -40 11 -40 26 0 14 26 10 39 -5z
m-3119 -10 c0 -8 -4 -18 -10 -21 -5 -3 -10 3 -10 14 0 12 5 21 10 21 6 0 10
-6 10 -14z m2470 1 c0 -21 -35 -48 -53 -41 -15 5 -15 8 1 30 18 25 52 32 52
11z m468 -9 c4 -19 -26 -50 -42 -45 -13 5 -9 36 6 55 14 16 32 11 36 -10z
m-4699 -2 c10 -11 8 -16 -9 -21 -24 -8 -46 7 -36 24 10 15 31 14 45 -3z m1499
2 c17 -17 15 -43 -4 -58 -13 -11 -16 -10 -21 8 -3 12 -9 22 -14 22 -14 0 -11
28 4 33 19 8 22 8 35 -5z m746 -13 c23 -34 20 -38 -14 -20 -16 9 -30 22 -30
30 0 23 26 18 44 -10z m2223 -21 c-3 -3 -16 -4 -29 -2 l-23 5 25 10 c23 10 41
1 27 -13z m91 -23 c17 -17 32 -34 32 -40 0 -15 -18 -23 -25 -11 -3 5 -16 10
-28 10 -36 0 -50 15 -43 44 8 34 24 33 64 -3z m247 -51 c9 -15 -4 -50 -20 -50
-13 0 -25 21 -25 46 0 16 36 19 45 4z m-4765 -30 c13 -8 12 -12 -7 -31 l-21
-22 -27 21 c-24 19 -24 21 -8 31 23 13 44 13 63 1z m6438 -14 c3 -12 -1 -17
-10 -14 -7 3 -15 13 -16 22 -3 12 1 17 10 14 7 -3 15 -13 16 -22z m-4203 -26
c3 -5 -1 -10 -9 -10 -9 0 -16 5 -16 10 0 6 4 10 9 10 6 0 13 -4 16 -10z m4103
-17 c5 -18 -10 -16 -34 2 -18 15 -18 15 5 13 14 -2 26 -9 29 -15z m-1728 -14
c0 -6 -4 -7 -10 -4 -5 3 -10 11 -10 16 0 6 5 7 10 4 6 -3 10 -11 10 -16z"/>
<path d="M5463 9109 c-10 -4 -31 -5 -48 -2 -27 3 -26 2 13 -18 24 -12 51 -34
60 -48 43 -68 104 -64 127 10 4 13 15 29 24 36 14 10 14 12 1 17 -25 8 -158
12 -177 5z"/>
<path d="M5951 9054 c-30 -19 -71 -36 -90 -39 -58 -10 -75 -14 -91 -25 -13 -9
-13 -11 0 -20 27 -19 153 1 237 36 17 8 37 14 45 14 22 1 51 28 45 43 -5 13
-53 28 -81 26 -6 -1 -35 -16 -65 -35z"/>
<path d="M4865 9000 c-3 -5 1 -10 9 -10 9 0 16 5 16 10 0 6 -4 10 -9 10 -6 0
-13 -4 -16 -10z"/>
<path d="M6346 8982 c-12 -20 41 -56 63 -43 24 15 3 51 -29 51 -16 0 -31 -4
-34 -8z"/>
<path d="M6470 8981 c0 -5 9 -19 20 -32 19 -23 19 -23 20 -3 0 20 -17 44 -32
44 -4 0 -8 -4 -8 -9z"/>
<path d="M3771 8633 c13 -34 48 -73 65 -73 9 0 11 -6 7 -17 -6 -16 -5 -17 11
-3 11 8 14 16 7 18 -6 2 -11 10 -11 17 0 7 -7 16 -15 19 -9 3 -21 19 -26 36
-7 19 -18 30 -30 30 -16 0 -17 -4 -8 -27z"/>
<path d="M6930 8642 c0 -12 19 -26 26 -19 2 2 -2 10 -11 17 -9 8 -15 8 -15 2z"/>
<path d="M7047 8516 c10 -13 20 -20 21 -15 5 12 -17 39 -30 39 -5 0 -1 -11 9
-24z"/>
<path d="M3600 8506 c0 -24 36 -60 53 -53 24 9 21 33 -5 51 -28 20 -48 20 -48
2z"/>
<path d="M3185 3720 c-3 -5 -1 -18 4 -27 9 -16 10 -14 11 10 0 28 -5 34 -15
17z"/>
<path d="M4465 8100 c-11 -5 -32 -11 -46 -14 -28 -6 -46 -43 -29 -60 12 -12
55 11 102 55 27 24 29 29 13 28 -11 0 -29 -4 -40 -9z"/>
<path d="M4288 6942 c-52 -44 -84 -61 -140 -76 -62 -15 -81 -42 -71 -99 6 -37
16 -46 28 -27 8 13 52 13 61 -1 8 -13 -51 -69 -72 -69 -8 0 -22 -4 -32 -9 -9
-6 -29 -12 -44 -16 -29 -6 -39 -25 -13 -25 24 0 17 -22 -16 -49 -32 -28 -53
-89 -40 -123 6 -17 10 -16 49 17 23 20 42 42 42 48 0 6 28 39 63 73 34 33 73
75 86 93 13 17 46 43 74 58 47 23 59 25 137 20 58 -3 106 -13 150 -30 36 -14
91 -28 122 -32 32 -3 60 -10 63 -15 10 -16 -6 -38 -37 -51 -23 -9 -29 -17 -26
-34 4 -21 1 -22 -75 -24 -44 -1 -84 -4 -89 -7 -5 -3 -42 -7 -82 -9 -51 -2 -92
-11 -132 -28 -33 -14 -71 -28 -86 -31 -15 -4 -61 -34 -102 -69 -41 -34 -86
-70 -100 -80 -32 -22 -33 -49 -5 -89 20 -27 25 -30 62 -24 56 9 174 85 236
151 55 60 85 69 116 35 10 -11 18 -32 19 -47 1 -22 9 -32 39 -47 37 -18 40
-18 80 0 82 36 108 56 132 103 39 78 67 87 114 37 20 -22 21 -26 9 -64 -9 -28
-19 -42 -33 -44 -14 -2 -19 -10 -18 -25 3 -26 -48 -73 -79 -73 -12 0 -65 -16
-119 -36 l-97 -36 -64 14 c-35 9 -70 18 -78 22 -30 12 -43 -8 -31 -46 11 -34
44 -58 79 -58 9 0 36 -7 59 -16 41 -16 46 -16 106 5 35 11 75 21 88 21 14 0
53 11 88 24 34 14 83 28 108 32 52 8 146 79 188 143 26 38 79 71 115 71 18 0
20 -5 14 -57 -3 -32 -7 -63 -9 -69 -4 -14 40 -86 48 -77 4 3 7 29 7 57 0 29 6
60 14 71 7 11 17 52 21 91 6 61 4 76 -14 110 -14 26 -19 48 -15 67 9 44 -8 56
-74 50 -55 -5 -58 -4 -70 21 -8 17 -22 29 -42 33 -39 7 -45 18 -27 47 29 44
25 83 -11 124 -34 38 -74 42 -96 10 -9 -12 -17 -20 -18 -17 -2 2 -8 13 -14 24
-18 35 -73 57 -124 50 -25 -3 -83 -9 -130 -13 -51 -5 -95 -14 -110 -24 -14 -9
-49 -19 -77 -23 -51 -7 -53 -6 -53 17 0 13 -5 29 -12 36 -15 15 -2 29 32 35
21 4 20 4 -7 6 -22 1 -43 -8 -65 -27z m22 -91 c0 -19 -32 -41 -60 -41 -42 0
-46 18 -8 35 38 16 68 19 68 6z m-175 -21 c3 -5 -1 -10 -9 -10 -9 0 -16 5 -16
10 0 6 4 10 9 10 6 0 13 -4 16 -10z m-34 -217 c-16 -26 -48 -63 -56 -63 -9 0
4 51 17 67 6 7 19 13 30 13 15 0 17 -3 9 -17z m828 -42 c11 -7 9 -10 -8 -16
-22 -7 -41 0 -41 16 0 11 30 12 49 0z m51 -116 c0 -8 -4 -15 -10 -15 -5 0 -10
7 -10 15 0 8 5 15 10 15 6 0 10 -7 10 -15z"/>
<path d="M6276 6913 c-4 -4 -78 -10 -164 -14 -161 -8 -336 -23 -407 -37 -30
-5 -43 -14 -54 -36 -7 -15 -35 -42 -62 -59 l-49 -30 -2 -66 c-1 -36 -1 -82 0
-101 1 -19 3 -87 5 -151 2 -96 5 -120 20 -136 9 -11 15 -26 12 -34 -2 -8 8
-36 23 -64 23 -43 32 -50 62 -53 23 -2 42 -12 57 -30 21 -26 22 -26 39 -10 17
17 17 20 -4 63 -12 25 -22 52 -22 60 0 18 31 35 63 35 13 0 41 13 62 30 21 16
55 35 76 40 43 12 59 33 59 80 0 43 15 66 46 74 31 8 50 -5 59 -42 23 -97 24
-100 63 -115 45 -18 150 -13 194 9 15 8 41 14 57 14 17 0 41 5 54 11 28 13 50
4 112 -47 42 -34 200 -98 222 -89 20 7 15 38 -16 100 -42 83 -168 193 -206
179 -8 -4 -21 -2 -28 4 -18 15 -162 42 -222 42 -28 0 -78 9 -110 20 -75 26
-104 25 -142 -3 -25 -18 -44 -23 -95 -22 -88 0 -83 19 20 76 45 25 90 53 100
62 10 9 49 23 87 32 39 8 87 23 109 32 36 16 107 21 196 15 72 -5 160 10 170
28 14 26 4 30 -69 30 -84 0 -111 8 -111 30 0 15 11 20 55 25 30 4 55 10 55 14
0 4 -15 12 -34 19 -29 11 -40 10 -80 -7 l-46 -20 -42 24 c-42 24 -97 33 -112
18z m-576 -88 c0 -8 -4 -15 -9 -15 -13 0 -22 16 -14 24 11 11 23 6 23 -9z
m140 -409 c0 -8 -4 -17 -9 -21 -12 -7 -24 12 -16 25 9 15 25 12 25 -4z m615 0
c23 -17 13 -46 -15 -46 -12 0 -35 7 -52 16 -30 16 -31 17 -13 30 24 18 56 18
80 0z"/>
<path d="M4322 6381 c4 -13 18 -16 19 -4 0 4 -5 9 -11 12 -7 2 -11 -2 -8 -8z"/>
<path d="M5903 6253 c-18 -2 -33 -7 -33 -11 0 -19 32 -50 57 -57 14 -3 40 -17
56 -31 16 -13 37 -24 47 -24 10 0 49 -15 86 -32 65 -31 75 -33 167 -31 130 3
191 21 248 76 65 62 57 69 -64 61 -56 -3 -118 -10 -137 -15 -54 -13 -214 6
-247 29 -16 10 -48 22 -73 25 -25 2 -52 7 -60 9 -8 3 -30 3 -47 1z"/>
<path d="M3930 6222 c-23 -8 -64 -42 -51 -42 18 0 112 32 108 37 -8 7 -42 10
-57 5z"/>
<path d="M3173 6202 c-15 -9 -53 -97 -53 -122 0 -29 11 -50 26 -50 19 0 18
-35 -2 -55 -13 -12 -14 -19 -4 -30 7 -8 19 -15 26 -15 8 0 11 -6 8 -15 -10
-25 16 -17 47 15 18 18 27 35 23 42 -18 29 -10 67 23 104 39 45 43 82 10 112
-23 22 -80 30 -104 14z"/>
<path d="M7577 6174 c-17 -16 -27 -33 -24 -43 27 -82 32 -122 25 -186 -4 -38
-4 -89 -1 -112 5 -38 7 -41 24 -32 25 13 61 86 89 178 27 92 22 173 -13 196
-43 28 -70 27 -100 -1z"/>
<path d="M4120 6072 c0 -4 10 -13 21 -21 l22 -13 -23 -11 c-32 -16 -37 -37
-10 -37 28 0 62 19 55 31 -4 5 -1 9 6 9 9 0 9 3 0 14 -14 16 -71 39 -71 28z"/>
<path d="M5570 6055 c-16 -20 -5 -45 20 -45 17 0 40 32 40 56 0 11 -49 2 -60
-11z"/>
<path d="M4912 5738 c-9 -9 -9 -15 0 -25 9 -11 4 -21 -19 -46 -40 -42 -82
-126 -89 -180 -5 -35 0 -56 25 -110 18 -37 36 -88 40 -113 9 -48 67 -127 113
-153 23 -13 30 -13 67 3 22 11 48 27 57 37 20 22 86 26 102 6 6 -7 14 -28 17
-47 8 -46 20 -52 86 -47 63 5 167 53 187 86 17 29 83 28 129 0 30 -19 39 -20
72 -10 21 6 52 11 69 11 23 0 45 12 82 45 28 25 55 45 60 45 17 0 47 86 54
153 13 119 -42 232 -137 282 -27 14 -51 25 -53 25 -2 0 -4 -11 -4 -24 0 -36
31 -99 72 -145 20 -23 39 -57 43 -78 5 -31 3 -39 -18 -57 -14 -12 -30 -32 -37
-44 -9 -19 -17 -22 -36 -18 -22 6 -24 4 -24 -34 0 -62 -32 -65 -101 -9 -43 35
-88 28 -212 -34 -160 -80 -200 -83 -226 -19 -14 33 -92 102 -116 102 -22 0
-54 -17 -93 -51 -24 -21 -43 -29 -71 -29 l-38 0 2 93 c0 50 6 101 13 113 25
47 62 175 62 219 0 40 -3 47 -26 55 -32 13 -37 13 -52 -2z"/>
<path d="M6060 5181 c0 -17 32 -35 44 -24 5 6 -25 43 -36 43 -5 0 -8 -8 -8
-19z"/>
<path d="M6140 5100 c0 -5 4 -10 9 -10 6 0 13 5 16 10 3 6 -1 10 -9 10 -9 0
-16 -4 -16 -10z"/>
<path d="M6381 5069 l-23 -9 25 -33 c18 -24 34 -33 61 -35 36 -3 36 -3 29 30
-10 52 -41 68 -92 47z"/>
<path d="M4660 4846 c-14 -8 -54 -47 -89 -86 -61 -68 -63 -73 -56 -108 11 -54
9 -85 -12 -203 -18 -98 -23 -109 -56 -143 -28 -27 -37 -45 -37 -70 0 -33 25
-66 50 -66 20 0 39 32 40 64 0 21 12 39 45 69 25 22 45 45 45 50 0 19 179 186
214 201 54 22 271 35 486 28 47 -2 99 -3 115 -3 17 0 94 -2 173 -5 124 -4 142
-3 142 10 0 20 24 21 40 1 7 -8 19 -15 27 -15 7 0 23 -15 34 -34 19 -33 20
-33 57 -21 20 8 51 20 67 29 17 9 51 16 77 16 26 0 59 5 75 11 24 9 30 7 46
-12 24 -30 19 -63 -11 -67 -22 -3 -23 -7 -17 -51 4 -34 2 -59 -11 -90 -9 -23
-14 -44 -12 -47 3 -2 29 -13 58 -23 29 -10 56 -24 60 -32 5 -7 8 -42 8 -78 0
-71 18 -99 51 -81 15 7 17 22 14 92 -3 76 -5 84 -30 104 -23 18 -27 29 -26 65
1 24 -5 68 -13 97 -9 31 -15 85 -14 135 2 89 -9 169 -28 205 -22 39 -124 70
-167 50 -14 -6 -25 -16 -25 -22 0 -14 25 -53 58 -88 29 -31 26 -38 -15 -43
-81 -10 -140 -7 -163 7 -14 9 -73 32 -132 52 -131 44 -192 47 -280 11 -34 -14
-72 -25 -85 -25 -13 0 -50 11 -83 25 -74 31 -93 31 -146 0 -23 -14 -71 -32
-106 -40 -35 -8 -88 -21 -118 -30 -65 -18 -225 -21 -236 -3 -4 7 2 18 15 27
47 34 111 95 111 106 0 11 -25 20 -105 42 -5 1 -21 -4 -35 -11z m980 -167 c0
-5 -9 -9 -20 -9 -22 0 -27 16 -7 23 15 5 27 -1 27 -14z m-105 -19 c-3 -5 -10
-10 -16 -10 -5 0 -9 5 -9 10 0 6 7 10 16 10 8 0 12 -4 9 -10z"/>
<path d="M3975 4720 c-3 -5 -2 -10 4 -10 5 0 13 5 16 10 3 6 2 10 -4 10 -5 0
-13 -4 -16 -10z"/>
<path d="M4082 4588 c-15 -20 -24 -57 -17 -69 12 -18 45 21 45 53 0 30 -11 36
-28 16z"/>
<path d="M4420 4561 c0 -5 5 -13 10 -16 6 -3 10 -2 10 4 0 5 -4 13 -10 16 -5
3 -10 2 -10 -4z"/>
<path d="M5620 4489 c-47 -4 -119 -14 -160 -23 -78 -15 -99 -14 -163 10 -37
14 -171 19 -201 8 -22 -9 -21 -54 2 -54 9 -1 69 -8 132 -16 125 -17 305 -34
358 -34 18 0 45 6 60 14 15 8 45 19 68 25 22 6 49 19 58 30 16 17 16 20 1 35
-17 17 -20 17 -155 5z"/>
<path d="M5172 4356 c3 -18 -3 -22 -34 -24 -27 -2 -35 -7 -31 -18 3 -7 9 -12
13 -9 4 3 28 -4 51 -15 24 -11 57 -20 73 -20 19 0 38 -11 60 -35 45 -48 109
-46 128 5 3 9 31 24 62 33 31 10 60 26 65 35 8 15 -1 17 -97 20 -93 2 -109 5
-124 22 -17 21 -85 30 -73 10 7 -12 -35 -31 -49 -22 -5 3 1 9 13 14 32 11 17
28 -25 26 -29 -1 -34 -5 -32 -22z"/>
<path d="M5100 4227 c0 -37 15 -57 42 -57 21 0 22 -4 8 -31 -6 -10 -19 -19
-30 -19 -29 0 -33 -17 -8 -39 25 -24 23 -23 61 -25 51 -3 62 37 27 105 -12 25
-36 54 -51 63 -16 10 -29 21 -29 27 0 5 -4 9 -10 9 -5 0 -10 -15 -10 -33z"/>
<path d="M4215 4196 c30 -40 45 -46 45 -17 0 21 -15 35 -49 46 l-24 7 28 -36z"/>
<path d="M4147 4073 c-4 -17 1 -42 12 -63 10 -19 21 -57 25 -85 12 -78 57
-115 97 -79 16 14 20 14 48 0 46 -24 48 -20 11 19 -18 19 -36 32 -41 30 -10
-7 -39 70 -39 105 0 20 -6 31 -20 35 -11 3 -29 19 -40 36 -27 36 -46 37 -53 2z"/>
<path d="M5455 4059 c-33 -10 -74 -18 -92 -18 -38 -1 -56 -21 -18 -21 15 0 35
-5 46 -11 25 -13 127 15 136 37 10 27 -11 31 -72 13z"/>
<path d="M5335 3953 c-29 -7 -45 -23 -45 -43 0 -10 -7 -31 -15 -46 -20 -39
-19 -51 5 -59 11 -3 24 -14 30 -24 13 -25 68 -47 82 -33 15 15 1 32 -28 32
-33 0 -27 21 12 39 16 8 32 19 36 25 15 22 8 76 -12 96 -20 20 -28 22 -65 13z"/>
<path d="M6355 3818 c-11 -6 -40 -29 -65 -51 -50 -44 -135 -90 -153 -84 -7 3
-25 -5 -42 -18 -16 -12 -37 -24 -45 -28 -8 -4 -44 -27 -79 -52 -35 -25 -72
-45 -82 -45 -10 0 -39 -13 -64 -29 -26 -16 -67 -31 -97 -35 -28 -4 -60 -14
-72 -22 -42 -29 -126 -8 -94 24 23 23 -10 12 -40 -13 -37 -31 -45 -31 -57 -2
-7 14 -21 23 -40 25 -38 5 -105 -15 -105 -31 0 -8 -21 -12 -66 -12 l-65 0 5
28 c8 41 -18 87 -49 87 -46 0 -150 -33 -167 -53 -10 -10 -18 -35 -18 -53 0
-28 5 -36 28 -45 61 -24 78 -36 92 -67 18 -38 65 -72 156 -113 86 -38 122 -38
156 1 14 17 36 30 47 30 12 0 40 17 62 38 41 36 76 50 189 72 53 11 146 44
165 60 7 6 57 24 112 39 107 31 197 72 206 94 3 8 26 24 51 37 34 16 52 34 72
71 15 27 33 49 39 49 19 0 46 36 40 53 -4 9 3 24 16 36 21 20 22 21 3 21 -10
0 -28 -6 -39 -12z"/>
<path d="M4510 3718 c0 -36 23 -88 45 -102 24 -16 66 -21 78 -10 18 18 -37 74
-65 66 -5 -1 -8 4 -8 12 0 16 -26 46 -41 46 -5 0 -9 -6 -9 -12z"/>
<path d="M5095 3700 c-7 -12 2 -12 30 0 19 8 19 9 -2 9 -12 1 -25 -3 -28 -9z"/>
<path d="M6630 3599 c0 -5 5 -7 10 -4 6 3 10 8 10 11 0 2 -4 4 -10 4 -5 0 -10
-5 -10 -11z"/>
<path d="M5625 3530 c-3 -5 1 -10 9 -10 9 0 16 5 16 10 0 6 -4 10 -9 10 -6 0
-13 -4 -16 -10z"/>
<path d="M4754 3521 c7 -11 56 -21 56 -11 0 4 -10 10 -22 14 -32 8 -40 7 -34
-3z"/>
<path d="M6698 3453 c-17 -19 -28 -44 -32 -78 -3 -27 -17 -65 -29 -85 -21 -31
-39 -73 -78 -178 -6 -17 -27 -45 -45 -62 -19 -16 -34 -36 -34 -44 0 -20 -38
-30 -55 -16 -12 10 -20 9 -40 -4 -29 -19 -32 -26 -7 -20 9 2 30 -7 45 -20 28
-23 28 -24 13 -53 -16 -31 -70 -83 -87 -83 -5 0 -39 -28 -76 -61 -38 -34 -78
-68 -90 -76 -12 -8 -50 -51 -85 -95 -35 -45 -69 -86 -77 -92 -8 -6 -62 -59
-120 -118 -93 -94 -191 -178 -206 -178 -3 0 -18 -8 -32 -17 -14 -10 -47 -25
-72 -33 -46 -15 -46 -15 -46 -60 0 -40 -3 -46 -27 -54 -19 -7 -28 -17 -28 -32
0 -22 -17 -34 -50 -34 -10 0 -20 -7 -24 -15 -3 -9 -18 -15 -40 -15 -41 0 -124
-26 -147 -46 -20 -18 -43 -18 -59 1 -7 8 -21 15 -31 15 -10 0 -20 8 -24 18 -7
21 -46 66 -67 78 -18 10 -78 83 -78 94 0 4 20 11 45 14 74 12 68 30 -8 24 -61
-5 -68 -4 -101 24 -45 37 -45 48 -3 48 18 0 38 5 45 12 18 18 14 62 -8 91 -11
14 -20 30 -20 36 0 15 -5 14 -43 -5 -43 -22 -43 -21 -18 -41 19 -16 20 -20 8
-36 -12 -18 -15 -18 -62 10 -27 16 -50 33 -52 39 -4 13 28 24 70 24 30 0 36
14 11 24 -9 3 -33 6 -53 6 -25 0 -44 7 -56 20 -10 11 -26 22 -36 25 -10 3 -27
26 -39 50 -12 25 -39 58 -61 75 -26 21 -42 44 -49 71 -6 21 -15 39 -19 39 -5
0 -27 12 -49 26 -30 20 -42 35 -47 61 -4 23 -24 53 -56 87 -27 28 -49 54 -49
58 0 4 -13 22 -29 40 -16 18 -43 48 -59 67 -17 19 -33 45 -37 59 -3 14 -17 39
-31 55 -13 16 -24 33 -24 37 0 5 -9 14 -20 20 -49 26 -90 -54 -56 -110 9 -16
16 -34 16 -42 0 -8 14 -27 31 -44 18 -16 47 -51 66 -79 29 -43 79 -111 113
-152 6 -7 10 -16 10 -20 0 -5 21 -29 46 -53 25 -25 52 -58 60 -73 8 -15 36
-52 62 -82 26 -29 81 -93 122 -141 41 -49 160 -173 265 -276 178 -177 196
-191 282 -233 50 -25 97 -45 103 -45 6 0 9 -8 5 -19 -5 -17 -1 -17 52 -9 43 7
65 17 95 43 21 19 44 35 52 35 7 0 29 13 49 29 20 15 60 40 89 54 29 15 78 47
108 72 30 26 68 53 85 62 32 17 39 24 261 241 83 81 153 152 155 157 2 6 21
23 42 39 22 16 43 40 49 55 5 14 31 42 58 61 27 19 54 44 61 56 6 12 33 38 61
58 50 38 54 44 128 212 10 22 34 67 54 100 20 32 36 67 36 78 0 25 44 111 80
154 20 25 26 38 18 43 -6 4 -14 40 -17 81 -7 84 -21 95 -63 51z m-1113 -1363
c11 -17 -5 -32 -21 -19 -7 6 -11 15 -8 20 7 12 21 11 29 -1z"/>
<path d="M4539 3309 c13 -11 26 -17 29 -14 8 8 -20 35 -37 35 -12 -1 -11 -5 8
-21z"/>
<path d="M4280 3170 c0 -5 5 -10 11 -10 5 0 7 5 4 10 -3 6 -8 10 -11 10 -2 0
-4 -4 -4 -10z"/>
<path d="M5123 3033 c-7 -3 -13 -9 -13 -14 0 -6 5 -7 10 -4 6 3 10 -1 10 -10
0 -12 -5 -15 -16 -11 -9 4 -14 1 -12 -6 2 -6 12 -12 22 -14 10 -1 41 -14 69
-27 73 -35 102 -40 137 -22 36 18 36 22 6 56 -34 40 -89 55 -138 38 -35 -11
-42 -11 -52 2 -6 9 -17 14 -23 12z"/>
<path d="M7690 2791 c0 -13 50 -44 58 -36 4 4 -4 15 -17 26 -25 20 -41 24 -41
10z"/>
<path d="M4425 2780 c4 -6 11 -8 16 -5 14 9 11 15 -7 15 -8 0 -12 -5 -9 -10z"/>
<path d="M3510 2690 c20 -13 33 -13 25 0 -3 6 -14 10 -23 10 -15 0 -15 -2 -2
-10z"/>
<path d="M4606 2691 c-11 -18 2 -30 29 -27 31 3 46 16 19 16 -11 0 -25 5 -31
11 -8 8 -13 8 -17 0z"/>
<path d="M4190 2675 c0 -12 28 -35 44 -35 13 0 5 24 -11 36 -23 18 -33 17 -33
-1z"/>
<path d="M6600 2674 c0 -17 22 -14 28 4 2 7 -3 12 -12 12 -9 0 -16 -7 -16 -16z"/>
<path d="M7830 2666 c0 -8 5 -18 10 -21 6 -3 10 1 10 9 0 8 -4 18 -10 21 -5 3
-10 -1 -10 -9z"/>
<path d="M4840 2612 c0 -13 23 -32 39 -32 11 0 10 4 -4 20 -19 21 -35 26 -35
12z"/>
<path d="M2873 2563 c-14 -16 -31 -27 -38 -25 -8 1 -24 -12 -37 -31 -14 -20
-30 -31 -40 -29 -25 5 -55 -15 -70 -46 -10 -21 -22 -28 -53 -33 -22 -3 -49
-10 -60 -15 -11 -6 -38 -19 -60 -30 l-40 -19 0 -67 c0 -74 -4 -83 -34 -73 -14
4 -21 15 -21 31 0 26 -21 41 -41 28 -8 -5 -4 -13 12 -25 16 -13 20 -21 13 -26
-18 -13 -34 -50 -34 -81 0 -17 -6 -32 -14 -35 -22 -9 -39 19 -33 51 6 32 0 46
-26 55 -20 7 -14 27 7 27 8 0 19 7 26 15 10 12 9 15 -4 15 -25 0 -46 -13 -94
-59 -23 -22 -53 -43 -67 -47 -20 -5 -24 -13 -27 -47 -3 -35 -7 -43 -26 -45
-13 -2 -32 4 -42 13 -17 15 -22 15 -75 -11 -31 -15 -61 -36 -66 -47 -10 -17
-9 -18 21 -2 39 20 80 13 80 -15 0 -14 -11 -22 -42 -30 -71 -19 -148 -58 -148
-76 0 -23 -60 -69 -93 -70 -41 -1 -72 -35 -58 -62 26 -48 3 -130 -27 -100 -7
7 -12 21 -12 33 -1 24 -22 55 -38 55 -7 0 -22 -17 -36 -37 -22 -35 -22 -40 -9
-66 18 -36 3 -57 -39 -57 -16 0 -41 -9 -55 -20 -14 -11 -32 -20 -39 -20 -16 0
-19 26 -4 35 10 6 40 70 40 86 0 17 -57 9 -74 -10 -10 -10 -37 -24 -62 -30
-50 -13 -80 -38 -90 -77 -9 -36 -51 -76 -74 -69 -13 4 -21 -4 -34 -35 -14 -35
-20 -40 -48 -40 -18 -1 -46 -7 -62 -13 -30 -13 -86 -11 -86 3 0 21 -35 18 -66
-6 -38 -29 -43 -44 -16 -44 11 0 27 -9 38 -21 18 -20 18 -21 -1 -35 -23 -17
-57 -18 -72 -3 -30 30 -45 -30 -17 -69 14 -20 14 -25 -2 -51 -19 -33 -15 -55
15 -71 18 -9 21 -8 21 8 0 10 -5 23 -10 28 -20 20 9 61 55 79 30 11 47 25 55
45 15 35 67 61 81 39 21 -33 -7 -86 -60 -113 -16 -9 -32 -29 -40 -53 -32 -92
-82 -122 -191 -116 -45 3 -76 0 -100 -11 -19 -8 -27 -15 -18 -16 19 0 42 -33
31 -44 -4 -3 -21 -3 -39 0 -28 5 -37 1 -59 -21 -29 -32 -31 -47 -10 -65 27
-23 18 -39 -19 -33 -30 5 -34 3 -38 -22 -4 -16 0 -31 9 -38 58 -48 64 -67 19
-67 -36 0 -48 -22 -40 -71 5 -33 15 -51 41 -74 28 -24 36 -40 40 -77 3 -25 1
-54 -5 -64 -9 -16 -11 -15 -25 12 -8 16 -12 43 -10 60 3 20 -1 35 -12 44 -14
12 -20 9 -45 -18 -18 -20 -39 -32 -54 -32 -26 0 -76 -53 -76 -82 0 -8 -9 -23
-20 -33 -45 -40 -62 -82 -56 -133 4 -26 3 -86 -2 -134 l-8 -88 92 0 c83 0 92
2 97 20 7 26 37 26 44 1 5 -19 16 -20 254 -20 244 -1 249 0 239 18 -17 33 10
38 35 8 20 -27 23 -27 130 -26 105 2 113 4 180 37 85 44 134 62 149 56 42 -16
38 -78 -6 -87 -13 -2 17 -5 65 -6 l88 -1 -1 33 c-1 17 2 44 5 59 6 21 2 29
-19 43 -44 29 -34 56 34 89 52 25 61 34 72 67 6 22 15 39 20 39 4 0 8 24 8 54
0 45 -4 58 -22 70 -18 13 -26 13 -52 2 -33 -14 -94 -52 -137 -85 -15 -11 -38
-25 -53 -31 -22 -8 -26 -7 -26 10 0 13 14 25 45 39 40 18 45 23 45 53 0 27 9
41 50 76 28 24 50 48 50 55 0 29 56 88 105 111 66 32 77 46 81 104 1 26 7 70
12 99 8 49 7 52 -12 55 -14 2 -22 11 -24 28 -2 21 4 29 33 43 20 9 41 17 49
17 7 0 23 11 35 24 20 21 22 31 16 74 -5 40 -2 58 14 90 12 23 28 45 37 50 20
11 54 96 54 133 0 15 22 59 53 104 28 43 55 83 59 89 4 6 17 34 28 62 16 39
43 71 110 133 103 96 116 121 89 175 -20 41 -18 56 8 56 23 0 72 38 88 70 13
25 180 204 261 280 14 14 37 36 50 50 13 14 53 56 89 93 36 38 65 70 65 73 0
13 -24 0 -47 -23z m-333 -243 c0 -5 -12 -10 -26 -10 -14 0 -23 4 -19 10 3 6
15 10 26 10 10 0 19 -4 19 -10z m-270 -235 c10 -12 9 -16 -4 -21 -16 -6 -46
11 -46 27 0 15 37 10 50 -6z m2 -135 c-10 -12 -18 -16 -21 -9 -2 6 3 15 10 20
24 15 29 10 11 -11z m-48 -47 c6 -14 -37 -70 -95 -123 -3 -3 -8 -12 -11 -20
-13 -33 -133 -162 -167 -180 -20 -10 -73 -56 -117 -102 -203 -207 -246 -248
-263 -248 -16 0 -14 22 5 48 11 16 21 21 40 16 29 -8 32 9 3 27 -26 18 -18 37
28 69 43 29 133 122 150 155 7 13 29 33 48 45 20 12 47 39 60 60 24 39 88 90
138 112 15 7 27 20 27 28 0 30 69 80 109 80 16 0 21 6 21 25 0 28 15 33 24 8z
m-431 -120 c9 -9 -12 -33 -30 -33 -11 0 -11 4 -3 20 11 21 22 25 33 13z m-416
-279 c7 -18 -7 -46 -25 -52 -7 -2 -15 5 -18 15 -3 10 -10 26 -15 36 -8 14 -5
17 21 17 19 0 33 -6 37 -16z m207 -60 c4 -10 -2 -14 -19 -14 -23 0 -33 18 -19
33 9 9 32 -3 38 -19z m-220 -77 c9 -15 7 -22 -13 -38 -26 -21 -51 -11 -51 20
0 40 43 52 64 18z m606 -47 c0 -5 -7 -10 -16 -10 -8 0 -12 5 -9 10 3 6 10 10
16 10 5 0 9 -4 9 -10z m-710 -73 c-1 -19 -26 -47 -43 -47 -9 0 -21 9 -27 20
-15 28 22 65 50 50 11 -6 20 -16 20 -23z m74 -88 c30 -24 32 -62 3 -67 -12 -3
-22 7 -32 32 -26 61 -17 71 29 35z m-164 -3 c0 -7 -12 -21 -26 -31 -25 -16
-27 -16 -45 4 -10 11 -19 22 -19 25 0 3 19 7 43 9 23 2 43 4 45 5 1 1 2 -4 2
-12z m640 -24 c0 -13 -12 -22 -22 -16 -10 6 -1 24 13 24 5 0 9 -4 9 -8z m-248
-107 c-20 -121 -21 -144 -10 -203 9 -46 9 -65 0 -74 -8 -8 -13 -3 -18 18 -4
16 -14 39 -22 52 -13 19 -13 29 -2 62 15 44 9 77 -20 110 -11 13 -20 24 -20
26 0 2 12 10 28 18 37 21 68 17 64 -9z m-445 -21 c3 -8 0 -27 -6 -42 l-13 -26
-19 24 c-22 29 -24 46 -6 53 23 10 38 7 44 -9z m253 -63 c0 -6 -4 -13 -10 -16
-5 -3 -10 1 -10 9 0 9 5 16 10 16 6 0 10 -4 10 -9z m-572 -38 c-2 -31 -7 -39
-26 -41 -27 -4 -36 16 -23 51 7 17 18 27 31 27 18 0 21 -5 18 -37z m-138 -39
c0 -9 -5 -14 -12 -12 -18 6 -21 28 -4 28 9 0 16 -7 16 -16z m245 -44 c15 -17
16 -24 7 -45 -21 -45 -72 -26 -72 26 0 25 7 31 41 38 3 0 14 -8 24 -19z m785
-45 c0 -8 -4 -15 -9 -15 -13 0 -22 16 -14 24 11 11 23 6 23 -9z m-1005 -15 c3
-5 -1 -10 -9 -10 -8 0 -18 5 -21 10 -3 6 1 10 9 10 8 0 18 -4 21 -10z m809
-69 c3 -5 -1 -11 -9 -15 -9 -3 -15 0 -15 9 0 16 16 20 24 6z m-699 -32 c8 -25
1 -34 -20 -26 -19 8 -20 47 -1 47 8 0 18 -9 21 -21z m555 2 c0 -12 -20 -25
-27 -18 -7 7 6 27 18 27 5 0 9 -4 9 -9z m125 -101 c0 -16 -6 -26 -19 -28 -25
-5 -39 12 -31 38 10 31 50 24 50 -10z m-510 0 c3 -5 -1 -10 -10 -10 -9 0 -13
5 -10 10 3 6 8 10 10 10 2 0 7 -4 10 -10z m-123 -67 c9 -10 18 -37 21 -60 3
-23 14 -55 26 -72 38 -53 20 -116 -19 -69 -36 41 -48 72 -55 146 -7 74 -1 87
27 55z m489 -3 c23 -13 25 -57 5 -85 -13 -18 -15 -18 -39 11 -31 34 -34 59 -9
73 21 13 20 13 43 1z m-307 -6 c20 -8 20 -24 2 -50 -14 -19 -15 -19 -40 5 -14
14 -26 30 -26 38 0 13 36 18 64 7z m-583 -71 c16 -10 29 -20 29 -24 0 -4 -23
-10 -51 -14 -62 -9 -80 4 -50 34 25 25 35 26 72 4z m649 -3 c0 -12 -28 -25
-36 -17 -9 9 6 27 22 27 8 0 14 -5 14 -10z m-540 -51 c14 -25 9 -64 -8 -64
-19 0 -46 49 -39 69 9 22 34 20 47 -5z m782 -26 c21 -20 38 -42 38 -49 0 -17
-41 -25 -95 -18 -37 6 -51 3 -73 -13 -68 -50 -125 -61 -152 -28 -18 22 -1 41
58 60 31 10 68 28 82 40 63 56 92 57 142 8z m-862 -73 c0 -5 -4 -10 -10 -10
-5 0 -10 5 -10 10 0 6 5 10 10 10 6 0 10 -4 10 -10z m470 -70 c20 -20 29 -90
11 -90 -4 0 -17 21 -27 47 -11 27 -20 51 -22 55 -7 16 19 7 38 -12z m-110 -49
c0 -12 -20 -25 -27 -18 -7 7 6 27 18 27 5 0 9 -4 9 -9z m315 -31 c0 -29 -4
-36 -22 -38 -17 -3 -24 3 -29 22 -9 37 2 58 28 54 19 -2 23 -9 23 -38z"/>
<path d="M4148 2583 c-36 -4 -38 -6 -38 -39 0 -40 9 -43 39 -10 13 13 34 27
47 30 24 6 25 28 1 24 -7 -1 -29 -3 -49 -5z"/>
<path d="M4953 2578 c-18 -6 -33 -16 -33 -22 0 -14 80 -76 136 -105 22 -12 58
-22 80 -24 37 -2 39 0 42 29 3 26 -2 33 -26 43 -17 7 -44 30 -61 52 -27 33
-37 39 -69 38 -20 -1 -52 -6 -69 -11z"/>
<path d="M7606 2555 c4 -8 11 -15 16 -15 6 0 5 6 -2 15 -7 8 -14 15 -16 15 -2
0 -1 -7 2 -15z"/>
<path d="M5545 2469 c-28 -10 -74 -18 -103 -18 -30 -1 -66 -7 -80 -15 -15 -8
-40 -19 -57 -26 -27 -10 -28 -13 -11 -22 20 -11 55 -7 103 13 27 11 39 11 67
1 27 -10 49 -11 92 -3 66 12 84 25 84 56 0 31 -33 36 -95 14z"/>
<path d="M7590 2456 c0 -2 7 -9 15 -16 12 -10 15 -10 15 4 0 9 -7 16 -15 16
-8 0 -15 -2 -15 -4z"/>
<path d="M5198 2417 c14 -17 60 -28 67 -16 7 10 -2 15 -45 24 -30 7 -33 6 -22
-8z"/>
<path d="M8360 2422 c0 -12 19 -26 26 -19 2 2 -2 10 -11 17 -9 8 -15 8 -15 2z"/>
<path d="M4174 2368 c3 -18 5 -43 5 -55 1 -22 37 -46 94 -63 26 -8 27 -7 21
18 -10 42 -31 70 -56 74 -13 2 -23 9 -23 15 0 7 -10 20 -22 28 -23 16 -23 16
-19 -17z"/>
<path d="M8416 2386 c3 -9 11 -16 16 -16 13 0 5 23 -10 28 -7 2 -10 -2 -6 -12z"/>
<path d="M3231 2362 c-18 -34 -13 -44 11 -22 16 15 19 23 11 31 -8 8 -14 6
-22 -9z"/>
<path d="M8150 2352 c0 -3 8 -11 18 -18 14 -11 15 -15 3 -23 -10 -7 -5 -16 23
-41 27 -25 36 -41 36 -66 0 -53 29 -126 63 -160 18 -18 41 -58 52 -90 l20 -59
43 3 c23 2 42 -1 42 -7 0 -21 -13 -41 -26 -41 -37 0 -21 -57 34 -127 22 -27
29 -30 46 -21 33 18 56 -21 56 -98 0 -85 23 -141 65 -158 75 -32 99 -104 50
-150 -24 -22 -25 -27 -19 -97 4 -49 13 -81 24 -94 10 -11 21 -31 25 -45 12
-43 34 -69 70 -84 32 -14 34 -18 37 -68 2 -29 -1 -66 -6 -81 -7 -25 7 -133 21
-159 2 -4 17 7 33 25 32 36 49 30 53 -18 2 -27 -7 -36 -61 -62 -2 0 8 -24 22
-52 14 -28 26 -62 26 -75 0 -28 19 -76 31 -76 11 0 69 -123 69 -146 0 -11 9
-36 20 -57 15 -27 19 -48 14 -72 -5 -26 -1 -38 16 -55 19 -19 20 -26 11 -47
-6 -13 -11 -26 -11 -28 0 -3 29 -5 65 -5 63 0 65 1 55 20 -12 22 -5 44 11 35
17 -11 9 18 -27 92 -28 60 -34 80 -28 106 13 55 5 90 -26 118 -17 14 -30 30
-30 36 0 6 -7 16 -15 23 -12 10 -21 10 -42 1 -41 -19 -39 -5 6 36 39 34 42 41
36 73 -4 19 -14 50 -22 68 -10 20 -13 42 -8 60 19 76 18 90 -8 112 -15 13 -27
37 -31 62 -4 22 -22 64 -41 94 -27 42 -40 54 -60 54 -33 0 -32 20 3 53 26 25
27 29 25 119 -1 51 -5 124 -9 162 -7 73 0 88 37 79 23 -6 85 -76 105 -118 7
-16 17 -37 22 -45 33 -58 52 -102 52 -119 0 -25 -8 -26 -38 -5 -33 23 -49 12
-66 -45 -20 -67 -5 -161 48 -296 8 -22 15 -63 16 -92 0 -37 5 -57 19 -70 33
-32 42 -60 35 -114 -7 -54 10 -153 31 -179 7 -8 20 -42 30 -75 9 -32 25 -70
36 -83 14 -19 19 -41 19 -93 l0 -68 270 0 270 -1 0 33 c0 20 -10 47 -25 67
-19 26 -25 46 -25 85 0 30 -6 60 -16 73 -9 13 -13 29 -10 37 3 8 -1 18 -9 23
-12 6 -11 13 8 42 17 26 21 43 17 65 -4 17 -1 41 6 56 10 20 10 36 3 64 -12
42 -9 49 19 41 12 -4 27 -28 40 -64 22 -59 20 -94 -8 -161 -7 -17 -8 -36 -2
-51 5 -15 5 -35 -2 -52 -8 -21 -7 -34 3 -49 7 -12 15 -55 18 -97 5 -62 9 -76
25 -80 11 -3 17 -10 14 -18 -5 -12 50 -14 347 -12 l352 3 3 29 c3 23 0 28 -12
23 -24 -9 -20 28 6 63 22 30 61 40 73 20 4 -6 -3 -31 -15 -55 -13 -27 -19 -53
-15 -65 5 -17 15 -20 70 -20 l64 0 -5 67 c-13 185 -13 186 -49 244 -30 50 -34
62 -29 105 3 30 -1 76 -11 119 -9 39 -24 109 -32 158 -11 58 -20 87 -30 87 -7
0 -13 -7 -13 -15 0 -8 -7 -15 -16 -15 -11 0 -14 8 -12 33 2 25 8 32 25 32 32
0 36 9 22 57 -16 55 -26 68 -55 68 -29 0 -38 14 -24 41 11 19 13 20 30 4 16
-14 18 -14 24 0 4 11 -2 19 -19 25 -22 9 -25 14 -23 62 2 38 -4 68 -21 105
-21 45 -28 52 -46 47 -17 -4 -28 2 -44 25 -26 36 -44 38 -89 11 -67 -41 -103
-7 -42 40 26 20 28 25 15 32 -8 5 -15 15 -15 22 0 7 -6 21 -14 32 -14 18 -17
17 -61 -26 -44 -43 -47 -44 -61 -26 -8 11 -14 30 -14 43 0 17 8 24 38 32 21 6
46 17 57 25 19 15 18 15 -17 16 -32 0 -39 4 -53 34 -9 19 -14 40 -10 45 3 6
-5 16 -20 23 -34 16 -56 -3 -37 -32 17 -27 15 -37 -7 -43 -11 -2 -21 -15 -23
-28 -5 -35 -43 -33 -43 2 0 49 -33 68 -125 72 -45 3 -48 20 -5 37 19 8 35 18
35 22 0 5 -16 18 -36 30 l-37 22 23 18 22 18 -30 0 c-27 0 -32 5 -48 50 -18
50 -41 71 -55 49 -4 -7 -2 -20 4 -29 8 -14 4 -25 -26 -55 -39 -40 -72 -44 -72
-8 0 12 -11 33 -23 46 -25 26 -20 36 29 56 19 9 14 9 -25 4 -40 -5 -52 -2 -62
12 -15 20 -34 12 -34 -15 0 -10 -3 -21 -8 -24 -13 -8 -70 22 -76 41 -3 10 -20
26 -37 36 -25 14 -29 20 -19 32 6 8 20 17 31 20 38 12 18 20 -48 19 -38 -1
-72 -3 -78 -5 -19 -6 -96 13 -110 28 -8 8 -15 27 -15 43 0 37 -44 56 -127 51
-33 -1 -70 2 -81 8 -17 9 -23 7 -34 -7 -7 -11 -23 -24 -36 -31 -18 -10 -23 -9
-28 4 -4 9 1 24 10 34 9 10 16 22 16 28 0 6 8 13 18 17 30 10 86 56 69 56 -9
0 -19 -4 -22 -10 -10 -16 -33 -12 -55 10 -13 13 -28 18 -47 15 -42 -8 -103 18
-122 51 -9 16 -17 31 -19 33 -1 3 -8 -1 -14 -7 -7 -7 -19 -12 -27 -12 -21 0
-61 72 -55 97 9 32 -10 35 -46 8 -19 -14 -40 -25 -47 -25 -21 0 -16 -13 24
-65 35 -44 38 -54 41 -124 4 -74 3 -78 -27 -110 -34 -36 -58 -37 -53 -2 2 12
-2 29 -8 36 -16 20 -5 45 20 45 28 0 25 15 -9 39 -16 12 -39 37 -51 56 -20 32
-145 125 -169 125 -6 0 -11 7 -11 16 0 8 5 12 10 9 6 -3 10 -2 10 4 0 18 -36
31 -94 34 -31 2 -56 1 -56 -1z m223 -164 c2 -7 -4 -24 -14 -37 -11 -13 -19
-32 -19 -43 0 -22 -27 -35 -42 -20 -8 8 -7 20 5 44 8 18 18 41 21 51 6 20 42
23 49 5z m407 -62 c0 -17 -35 -31 -66 -27 -11 1 -32 -3 -46 -8 -35 -13 -57 9
-33 33 22 22 145 23 145 2z m30 -171 c10 -12 8 -21 -7 -47 -29 -50 -50 -48
-55 4 -3 24 -3 46 -1 51 7 13 50 8 63 -8z m228 -43 c4 -29 -34 -50 -55 -29
-13 13 -13 17 7 37 25 25 44 22 48 -8z m-315 -72 c7 0 -1 -9 -18 -20 -36 -24
-55 -25 -55 -5 0 17 30 36 48 30 8 -3 19 -5 25 -5z m227 -9 c0 -10 -30 -24
-37 -17 -3 3 -2 9 2 15 8 13 35 15 35 2z m-380 -35 c0 -8 -6 -19 -14 -25 -20
-16 -30 3 -16 29 11 21 30 19 30 -4z m697 -2 c8 -22 -18 -37 -36 -20 -7 8 -10
19 -7 25 10 16 36 13 43 -5z m-141 -107 c-6 -37 -3 -47 19 -71 14 -15 25 -31
25 -37 0 -5 6 -9 13 -9 8 0 22 -9 32 -20 10 -11 23 -20 30 -20 6 0 22 -11 34
-24 l23 -25 -28 -25 c-27 -23 -31 -23 -64 -10 -19 8 -37 20 -39 26 -7 20 -86
88 -109 94 -31 8 -54 -3 -135 -65 -56 -43 -68 -49 -74 -35 -4 10 0 20 10 26
10 5 17 19 17 31 1 17 20 34 82 72 59 36 85 59 94 82 14 32 37 52 63 53 10 0
12 -10 7 -43z m451 3 c0 -23 -2 -39 -6 -38 -3 2 -18 10 -33 17 -16 8 -28 19
-28 26 0 18 22 35 46 35 18 0 21 -6 21 -40z m-767 11 c0 -23 -22 -42 -37 -33
-7 4 -10 18 -6 30 7 27 43 30 43 3z m422 -23 c-7 -7 -12 -8 -12 -2 0 14 12 26
19 19 2 -3 -1 -11 -7 -17z m178 -6 c0 -13 -12 -22 -22 -16 -10 6 -1 24 13 24
5 0 9 -4 9 -8z m400 -61 c0 -24 -22 -42 -39 -32 -10 7 -11 13 -2 30 14 26 41
28 41 2z m-432 -13 c5 -24 -27 -68 -49 -68 -24 0 -24 19 -1 59 18 33 45 37 50
9z m202 -38 c0 -5 -7 -10 -15 -10 -8 0 -15 5 -15 10 0 6 7 10 15 10 8 0 15 -4
15 -10z m128 -78 c2 -13 -4 -35 -13 -49 l-17 -25 -26 25 -26 26 24 26 c28 30
54 29 58 -3z m-307 -62 c9 0 19 7 23 15 7 19 36 20 36 1 0 -7 -7 -19 -15 -26
-21 -17 -19 -31 11 -75 14 -21 29 -48 34 -59 9 -26 -16 -96 -35 -96 -19 0 -75
93 -75 126 -1 16 -10 40 -20 53 -17 19 -27 23 -55 18 -31 -5 -35 -3 -35 15 0
12 9 32 20 44 21 21 21 21 58 3 20 -11 44 -19 53 -19z m237 -38 c2 -12 -1 -22
-7 -22 -5 0 -23 -11 -39 -25 -17 -15 -33 -21 -37 -16 -3 6 6 18 20 27 14 9 25
24 25 33 0 38 33 39 38 3z m371 -56 c13 -14 20 -29 17 -34 -10 -17 -57 -24
-72 -11 -21 17 -1 68 27 69 3 0 16 -11 28 -24z m-321 -36 c17 -11 32 -26 32
-34 0 -29 -21 -27 -49 3 -16 17 -34 31 -40 31 -6 0 -11 5 -11 10 0 16 33 11
68 -10z m-438 -45 c0 -8 -4 -15 -10 -15 -5 0 -7 7 -4 15 4 8 8 15 10 15 2 0 4
-7 4 -15z m900 -34 c0 -14 -18 -23 -30 -16 -6 4 -8 11 -5 16 8 12 35 12 35 0z
m278 -69 c-16 -36 -39 -63 -49 -56 -5 3 -9 23 -9 45 0 32 4 41 23 48 33 13 49
-4 35 -37z m-1020 6 c-5 -15 -48 -24 -48 -10 0 14 12 22 33 22 10 0 17 -5 15
-12z m-616 -20 c3 -7 2 -24 -2 -38 -4 -18 -13 -25 -30 -25 -20 0 -25 4 -22 24
4 42 43 70 54 39z m898 -13 c0 -8 -4 -15 -10 -15 -5 0 -10 7 -10 15 0 8 5 15
10 15 6 0 10 -7 10 -15z m438 -18 c2 -10 -3 -17 -12 -17 -10 0 -16 9 -16 21 0
24 23 21 28 -4z m187 2 c-8 -12 -35 -12 -35 0 0 11 22 20 33 14 4 -2 5 -9 2
-14z m-731 -55 c33 -33 7 -86 -32 -65 -26 14 -34 38 -22 62 13 23 33 24 54 3z
m502 -21 c-10 -10 -19 5 -10 18 6 11 8 11 12 0 2 -7 1 -15 -2 -18z m-725 -16
c-8 -8 -11 -7 -11 4 0 20 13 34 18 19 3 -7 -1 -17 -7 -23z m929 13 c0 -15 -7
-20 -25 -20 -27 0 -32 9 -13 28 18 18 38 14 38 -8z m-480 -19 c0 -21 -31 -33
-51 -20 -11 8 -10 12 5 24 27 20 46 19 46 -4z m320 -37 c0 -8 -9 -14 -20 -14
-19 0 -28 28 -13 43 9 9 33 -12 33 -29z m-606 -31 c9 -22 -10 -41 -25 -26 -13
13 -5 43 10 43 5 0 12 -8 15 -17z m240 -10 c9 -23 -12 -43 -24 -23 -5 8 -10
21 -10 28 0 18 27 15 34 -5z m-530 -15 c3 -13 9 -71 12 -129 5 -80 4 -108 -6
-114 -17 -11 -30 14 -21 39 10 27 5 43 -31 89 -29 37 -29 41 4 38 9 -1 19 2
22 7 7 12 -19 47 -35 47 -22 0 -20 20 3 31 35 18 45 16 52 -8z m1033 -32 c-6
-17 -47 -20 -47 -3 0 9 6 17 13 20 18 6 38 -4 34 -17z m120 -92 c-8 -46 -10
-48 -36 -34 -25 13 -26 27 -4 52 28 31 46 23 40 -18z m-674 2 c3 -8 -3 -26
-14 -40 -22 -28 -42 -35 -33 -11 4 10 -3 18 -21 25 -23 9 -25 13 -15 25 16 19
76 20 83 1z m-363 -27 c0 -5 -7 -9 -15 -9 -15 0 -20 12 -9 23 8 8 24 -1 24
-14z m460 -95 c0 -28 -19 -42 -31 -23 -11 17 -12 63 -2 73 11 10 33 -24 33
-50z m-330 17 c0 -26 -28 -47 -42 -33 -8 8 -6 18 6 37 18 27 36 25 36 -4z
m688 -37 c-3 -60 -6 -69 -33 -92 -27 -22 -30 -23 -33 -7 -3 10 7 27 23 39 21
17 26 27 21 44 -9 27 2 82 15 82 5 0 8 -29 7 -66z m176 51 c-4 -8 -10 -15 -15
-15 -5 0 -9 7 -9 15 0 8 7 15 15 15 9 0 12 -6 9 -15z m170 -24 c8 -13 -20 -45
-33 -37 -8 5 -8 13 -1 27 11 20 25 25 34 10z m-1144 -71 c12 -8 11 -10 -7 -10
-13 0 -23 5 -23 10 0 13 11 13 30 0z m1092 -49 c-25 -34 -31 -38 -35 -22 -6
24 10 50 36 60 32 12 32 7 -1 -38z m-231 -93 c-5 -13 -14 -42 -20 -65 -7 -24
-16 -43 -21 -43 -15 0 -12 23 5 46 8 10 15 34 15 52 0 21 5 32 15 32 11 0 12
-5 6 -22z m-756 -98 c10 -16 -14 -50 -35 -50 -28 0 -34 19 -14 41 19 21 39 25
49 9z m867 -32 c-15 -15 -26 -4 -18 18 5 13 9 15 18 6 9 -9 9 -15 0 -24z
m-162 -5 c0 -10 -7 -27 -15 -37 -8 -11 -15 -31 -15 -45 -1 -28 -47 -102 -68
-109 -9 -3 -10 3 -2 23 5 14 10 40 10 56 0 17 8 36 21 47 11 9 27 32 34 50 15
34 35 43 35 15z m477 -50 c4 -11 -26 -27 -35 -19 -2 3 -2 12 2 21 6 18 27 16
33 -2z m-326 -26 c-8 -8 -11 -7 -11 4 0 20 13 34 18 19 3 -7 -1 -17 -7 -23z
m-951 3 c0 -15 -31 -60 -41 -60 -10 0 -12 53 -2 63 10 11 43 8 43 -3z m1112
-52 c-15 -15 -26 -4 -18 18 5 13 9 15 18 6 9 -9 9 -15 0 -24z m-222 -88 c0
-21 -20 -38 -21 -18 0 9 -2 10 -5 1 -6 -14 -34 -6 -34 11 0 12 40 34 53 29 4
-3 7 -13 7 -23z m-360 -14 c0 -8 -4 -17 -9 -21 -12 -7 -24 12 -16 25 9 15 25
12 25 -4z"/>
<path d="M8450 2338 c0 -18 18 -34 28 -24 3 4 -2 14 -11 23 -16 16 -17 16 -17
1z"/>
<path d="M8730 2332 c0 -12 19 -26 26 -19 2 2 -2 10 -11 17 -9 8 -15 8 -15 2z"/>
<path d="M7725 2320 c3 -5 8 -10 11 -10 2 0 4 5 4 10 0 6 -5 10 -11 10 -5 0
-7 -4 -4 -10z"/>
<path d="M6243 2244 c-12 -9 -32 -36 -44 -61 -12 -25 -29 -48 -38 -50 -9 -3
-24 -21 -33 -40 -16 -34 -16 -37 0 -49 32 -25 51 -16 77 36 14 27 38 59 55 71
69 52 53 141 -17 93z"/>
<path d="M2345 2210 c-3 -5 1 -10 9 -10 9 0 16 5 16 10 0 6 -4 10 -9 10 -6 0
-13 -4 -16 -10z"/>
<path d="M2090 2130 c-9 -6 -10 -10 -3 -10 6 0 15 5 18 10 8 12 4 12 -15 0z"/>
<path d="M4240 2056 c0 -8 10 -16 23 -18 12 -2 21 -9 19 -17 -7 -32 10 -71 30
-71 20 0 49 22 47 37 -1 13 -89 83 -105 83 -8 0 -14 -6 -14 -14z"/>
<path d="M9410 1992 c0 -12 19 -26 26 -19 2 2 -2 10 -11 17 -9 8 -15 8 -15 2z"/>
<path d="M9636 1876 c3 -9 11 -16 16 -16 13 0 5 23 -10 28 -7 2 -10 -2 -6 -12z"/>
<path d="M3100 1791 c-25 -7 -36 -30 -27 -55 8 -19 115 11 128 36 7 13 6 18
-4 18 -8 0 -27 2 -43 4 -16 3 -40 1 -54 -3z"/>
<path d="M5536 1777 c-9 -7 -22 -23 -29 -37 -8 -15 -47 -42 -107 -73 -91 -46
-98 -48 -155 -43 -72 7 -132 -5 -151 -32 -7 -11 -27 -22 -43 -25 -16 -3 -41
-18 -55 -32 -17 -17 -36 -25 -61 -25 -46 0 -47 25 -1 40 18 6 42 20 52 31 11
12 31 27 46 35 16 8 34 29 42 47 7 19 27 49 45 69 51 58 14 65 -88 16 -84 -41
-159 -96 -194 -142 -16 -20 -41 -43 -57 -51 -16 -9 -37 -29 -45 -46 -9 -17
-63 -75 -119 -130 -106 -102 -133 -145 -152 -243 -6 -32 -4 -36 16 -36 12 0
34 8 48 19 80 56 151 65 190 22 74 -78 112 -149 163 -303 17 -51 40 -102 50
-114 11 -12 25 -38 30 -60 6 -21 22 -52 35 -69 29 -39 29 -46 4 -87 -11 -18
-20 -40 -20 -48 0 -8 -20 -56 -45 -106 -54 -107 -76 -182 -82 -281 l-5 -72
370 0 c314 0 371 2 376 15 7 19 45 18 52 -1 5 -11 22 -15 65 -15 32 0 59 1 59
3 0 1 -13 34 -29 72 -55 131 -140 291 -176 328 -34 35 -36 42 -42 121 -5 78
-4 86 19 117 14 19 28 41 32 49 9 21 56 92 87 132 15 18 39 62 54 98 16 36 39
73 51 83 12 10 39 42 59 72 20 30 55 68 78 84 23 16 53 41 66 55 31 33 80 35
115 4 19 -17 23 -27 17 -37 -8 -12 -14 -13 -36 -3 -26 12 -27 12 -20 -20 10
-44 11 -45 41 -52 19 -5 33 -2 48 12 11 10 36 25 54 32 56 22 35 83 -50 143
-52 38 -183 167 -258 255 -29 34 -75 76 -102 92 -27 17 -54 41 -60 55 -6 14
-14 25 -17 25 -4 0 -30 16 -60 35 -57 38 -77 42 -105 22z m222 -246 c4 -26 -9
-27 -39 -3 -15 13 -20 25 -16 37 7 16 9 16 30 2 12 -8 23 -24 25 -36z m-238
18 c0 -7 8 -17 17 -24 15 -11 15 -17 6 -36 -7 -13 -15 -39 -18 -56 -9 -44 -37
-43 -64 2 l-21 36 24 9 c29 11 45 36 39 61 -3 11 0 19 6 19 6 0 11 -5 11 -11z
m153 -43 c24 -19 21 -36 -7 -36 -28 0 -40 14 -32 35 7 18 16 18 39 1z m-265
-67 c2 -19 -4 -31 -22 -43 -15 -9 -26 -23 -26 -30 0 -25 -24 -34 -72 -29 -51
6 -61 20 -28 41 11 6 31 30 45 53 24 37 29 40 63 37 31 -3 37 -7 40 -29z m459
-5 c8 -22 -1 -26 -31 -13 -25 12 -33 29 -20 42 9 9 44 -11 51 -29z m-187 -34
c0 -5 -5 -10 -11 -10 -5 0 -7 5 -4 10 3 6 8 10 11 10 2 0 4 -4 4 -10z m-480
-15 c10 -12 10 -21 2 -41 -16 -35 -40 -41 -64 -16 -30 30 -18 72 21 72 16 0
34 -7 41 -15z m-237 -31 c-3 -8 -12 -14 -19 -14 -20 0 -30 30 -13 40 17 11 40
-7 32 -26z m448 -123 c7 -19 11 -53 11 -75 -2 -80 -2 -102 3 -206 3 -64 1
-115 -6 -132 -11 -27 -34 -42 -49 -33 -5 3 -17 -6 -28 -20 -26 -33 -61 -45
-136 -45 -35 0 -77 -5 -95 -11 -38 -13 -49 -6 -30 17 12 15 12 18 0 22 -40 14
-68 72 -33 72 23 0 37 -10 51 -37 9 -18 17 -21 44 -17 17 4 48 19 67 35 19 16
47 34 62 40 32 13 42 34 27 62 -7 11 -8 22 -3 24 32 11 37 21 21 38 -24 23
-21 42 9 70 l26 24 -28 25 c-40 34 -170 81 -198 70 -18 -7 -31 18 -22 42 6 15
9 14 30 -5 l24 -23 47 21 c51 23 41 25 128 -26 35 -20 59 1 51 45 -3 20 -10
41 -15 47 -5 5 -9 15 -9 22 0 25 39 -10 51 -46z m-544 23 c3 -8 0 -21 -6 -27
-14 -14 -44 2 -49 27 -5 22 46 22 55 0z m937 7 c4 -5 -3 -7 -14 -4 -23 6 -26
13 -6 13 8 0 17 -4 20 -9z m-64 -21 c0 -5 -5 -10 -11 -10 -5 0 -7 5 -4 10 3 6
8 10 11 10 2 0 4 -4 4 -10z m-80 -54 c0 -18 -36 -63 -44 -55 -10 10 15 69 30
69 8 0 14 -6 14 -14z m-705 -37 c11 -17 0 -20 -21 -4 -17 13 -17 14 -2 15 9 0
20 -5 23 -11z m15 -134 c0 -8 -4 -15 -9 -15 -5 0 -11 7 -15 15 -3 9 0 15 9 15
8 0 15 -7 15 -15z m670 -19 c0 -8 -4 -17 -9 -21 -12 -7 -24 12 -16 25 9 15 25
12 25 -4z m-402 -26 c2 -14 10 -32 18 -41 12 -13 11 -18 -2 -37 -14 -21 -43
-30 -45 -14 0 4 -2 33 -4 65 -3 50 -1 58 13 55 10 -2 19 -14 20 -28z m-158
-50 c0 -11 -4 -20 -9 -20 -13 0 -32 26 -24 33 13 14 33 6 33 -13z m256 -301
c6 -10 -7 -24 -30 -32 -5 -1 -8 -35 -7 -74 1 -63 -1 -72 -18 -78 -21 -6 -71
20 -71 37 0 23 -42 67 -70 73 -27 6 -50 39 -36 53 7 6 149 28 198 31 15 0 30
-4 34 -10z m54 -83 c-13 -13 -45 17 -35 34 5 8 12 6 26 -6 13 -12 16 -21 9
-28z m-265 -26 c3 -5 1 -10 -4 -10 -6 0 -11 5 -11 10 0 6 2 10 4 10 3 0 8 -4
11 -10z m90 -157 c-11 -45 -25 -55 -64 -48 -20 4 -38 9 -40 11 -3 2 8 18 24
34 19 20 39 30 58 30 27 0 29 -2 22 -27z m-125 -53 c0 -5 -12 -10 -26 -10 -14
0 -23 4 -19 10 3 6 15 10 26 10 10 0 19 -4 19 -10z m410 -20 c-9 -6 -19 -5
-25 1 -6 6 -5 13 5 19 9 6 19 5 25 -1 6 -6 5 -13 -5 -19z"/>
<path d="M9860 1775 c0 -18 19 -40 26 -32 4 4 0 15 -9 24 -9 10 -17 13 -17 8z"/>
<path d="M4381 1683 c0 -26 -5 -61 -9 -78 -12 -42 -5 -55 29 -55 16 0 29 -6
30 -12 6 -75 5 -87 -10 -91 -13 -4 -13 -5 2 -6 9 0 17 -8 17 -16 0 -8 6 -15
13 -15 17 0 38 36 31 55 -4 10 0 15 11 15 24 0 83 38 96 62 9 16 7 20 -10 25
-11 3 -22 11 -25 19 -8 21 -46 -1 -46 -26 0 -28 -17 -33 -39 -11 -16 16 -17
21 -5 25 8 3 14 14 14 24 0 20 29 52 48 52 28 0 9 20 -20 21 -41 2 -40 2 -59
-6 -10 -4 -19 4 -30 27 -22 49 -36 46 -38 -9z"/>
<path d="M4621 1664 c-16 -20 -18 -30 -10 -40 9 -11 18 -10 50 6 44 23 50 45
17 54 -34 9 -35 8 -57 -20z"/>
<path d="M2248 1643 c-44 -47 -62 -80 -88 -163 -12 -36 -38 -105 -59 -155 -47
-111 -81 -213 -81 -243 0 -13 -6 -35 -14 -50 -22 -43 -103 -264 -111 -302 -4
-19 -15 -46 -24 -60 -23 -35 -41 -77 -41 -99 0 -11 -11 -43 -25 -73 -14 -29
-25 -70 -25 -90 0 -46 -13 -81 -40 -108 -13 -13 -23 -37 -24 -61 -4 -52 -20
-69 -54 -60 -33 10 -52 4 -52 -14 0 -10 12 -13 43 -12 l42 2 -2 -45 c-1 -25
-4 -60 -8 -78 l-7 -32 65 0 c62 0 65 1 72 28 9 31 11 44 13 90 1 17 10 40 21
51 13 13 16 23 9 35 -10 18 -13 16 75 41 53 15 79 36 63 52 -4 4 -20 2 -35 -4
-34 -12 -81 -6 -81 12 0 21 37 46 82 56 46 11 78 34 78 56 0 26 -30 25 -61 -1
-17 -14 -37 -26 -45 -26 -19 0 -18 34 1 50 8 7 15 21 15 30 0 26 10 50 21 50
11 0 68 61 69 73 0 12 -55 8 -68 -5 -15 -15 -16 3 -2 54 13 44 38 61 85 57 22
-2 41 3 55 16 18 16 20 28 18 94 -3 70 -5 76 -25 79 -35 5 -32 72 3 105 17 16
25 35 26 58 0 22 13 53 35 86 25 36 34 59 30 74 -4 13 4 40 19 69 14 26 35 85
48 131 13 46 31 102 40 124 18 47 20 81 6 90 -5 3 -10 17 -10 31 0 33 -10 30
-52 -13z m-155 -857 c7 -18 -12 -42 -41 -51 -33 -10 -42 23 -13 47 28 22 47
23 54 4z"/>
<path d="M9970 1663 c0 -6 9 -21 20 -34 15 -18 19 -20 20 -8 0 9 -9 24 -20 34
-11 10 -20 13 -20 8z"/>
<path d="M9975 1561 c-22 -11 -36 -20 -32 -20 12 -1 77 27 77 33 0 8 0 8 -45
-13z"/>
<path d="M1055 1560 c-3 -5 1 -10 9 -10 8 0 18 5 21 10 3 6 -1 10 -9 10 -8 0
-18 -4 -21 -10z"/>
<path d="M6137 1553 c-3 -5 1 -14 9 -21 12 -11 14 -9 14 8 0 20 -14 27 -23 13z"/>
<path d="M10210 1530 c0 -5 5 -10 11 -10 5 0 7 5 4 10 -3 6 -8 10 -11 10 -2 0
-4 -4 -4 -10z"/>
<path d="M1004 1499 c-10 -12 -38 -30 -60 -39 -59 -26 -69 -45 -18 -35 21 5
58 9 82 9 53 1 72 24 51 62 -15 30 -30 30 -55 3z"/>
<path d="M7990 1510 c-36 -5 -90 -18 -119 -30 -30 -12 -80 -26 -110 -32 -31
-5 -69 -17 -84 -25 -29 -15 -44 -19 -207 -63 -89 -24 -165 -64 -155 -80 3 -6
12 -10 19 -10 7 0 35 -17 62 -39 87 -68 86 -68 142 -12 61 61 153 121 184 121
13 0 45 12 72 26 27 14 78 34 114 44 81 23 108 14 122 -41 13 -46 55 -99 79
-99 34 0 48 31 47 103 -1 45 3 72 11 79 19 16 16 35 -9 52 -24 17 -61 18 -168
6z"/>
<path d="M10310 1432 c0 -5 7 -15 15 -22 8 -7 15 -8 15 -2 0 5 -7 15 -15 22
-8 7 -15 8 -15 2z"/>
<path d="M6140 1422 c0 -12 34 -42 48 -42 20 0 13 17 -13 34 -27 18 -35 20
-35 8z"/>
<path d="M8591 1376 c-15 -18 -5 -56 15 -56 15 0 19 37 5 58 -6 10 -10 10 -20
-2z"/>
<path d="M6185 1361 c-3 -5 -1 -12 5 -16 5 -3 10 1 10 9 0 18 -6 21 -15 7z"/>
<path d="M10420 1312 c0 -15 28 -47 35 -40 8 8 -13 48 -25 48 -6 0 -10 -4 -10
-8z"/>
<path d="M8243 1217 c-13 -5 -23 -16 -23 -24 0 -18 49 -17 57 3 8 23 -9 33
-34 21z"/>
<path d="M626 1178 c-21 -46 -14 -90 17 -96 26 -5 77 35 70 56 -8 20 -56 82
-63 82 -3 0 -14 -19 -24 -42z"/>
<path d="M2628 1110 c-12 -7 -18 -24 -18 -48 0 -21 -7 -64 -15 -96 -14 -54
-14 -65 1 -127 15 -62 15 -70 0 -100 -16 -33 -21 -85 -10 -113 13 -33 61 -19
122 37 33 28 93 83 135 120 42 37 91 91 110 120 19 29 44 61 56 71 26 24 28
51 4 41 -10 -3 -37 -10 -61 -14 -32 -6 -51 -18 -75 -46 -61 -73 -87 -97 -100
-92 -20 6 -20 35 2 66 28 39 26 77 -5 114 l-26 31 22 18 22 18 -29 0 c-17 0
-50 2 -74 5 -24 3 -52 1 -61 -5z"/>
<path d="M2870 1086 c0 -2 8 -10 18 -17 15 -13 16 -12 3 4 -13 16 -21 21 -21
13z"/>
<path d="M1861 963 c-18 -17 -20 -23 -9 -23 17 0 42 25 36 37 -1 4 -14 -2 -27
-14z"/>
<path d="M4630 911 c0 -9 -8 -11 -25 -7 -29 7 -29 8 -10 -30 21 -43 52 -73 83
-80 15 -4 39 -16 54 -26 36 -25 52 -15 43 26 -4 17 -7 46 -6 64 0 41 -32 57
-80 40 -28 -9 -34 -8 -46 7 -8 12 -13 14 -13 6z"/>
<path d="M3180 883 c0 -5 7 -18 15 -29 12 -16 14 -16 15 -3 0 9 -7 22 -15 29
-8 7 -15 8 -15 3z"/>
<path d="M8470 751 c0 -5 7 -11 15 -15 9 -3 15 0 15 9 0 8 -7 15 -15 15 -8 0
-15 -4 -15 -9z"/>
<path d="M3143 726 c-22 -12 -22 -13 22 -56 46 -45 66 -49 45 -10 -7 13 -9 35
-6 51 5 25 3 29 -17 28 -12 -1 -32 -6 -44 -13z"/>
<path d="M8030 711 c0 -22 21 -33 41 -20 12 8 11 12 -5 24 -26 20 -36 19 -36
-4z"/>
<path d="M4670 677 c-24 -19 -14 -76 16 -87 20 -8 24 -16 24 -49 0 -22 -4 -42
-9 -45 -16 -11 -19 -46 -4 -61 8 -8 26 -15 40 -15 22 0 24 -3 19 -27 -6 -25
-1 -31 33 -50 22 -13 42 -19 45 -15 6 11 -10 82 -22 94 -6 6 -6 23 0 46 17 68
13 81 -34 106 -20 11 -42 31 -48 45 -6 14 -18 36 -28 48 -14 18 -20 20 -32 10z"/>
<path d="M4745 659 c-11 -16 1 -22 30 -15 14 4 23 11 20 16 -8 13 -42 13 -50
-1z"/>
<path d="M5867 573 c-10 -15 8 -32 40 -39 18 -3 33 -2 37 5 4 6 17 11 29 11
16 0 18 3 9 12 -9 9 -16 8 -30 -5 -24 -22 -37 -21 -61 4 -10 11 -21 17 -24 12z"/>
<path d="M2885 452 c7 -20 21 -41 31 -47 10 -5 24 -16 32 -22 18 -17 27 -17
14 0 -6 7 -12 32 -14 57 -3 43 -4 44 -39 46 l-36 3 12 -37z"/>
<path d="M5700 478 c1 -14 24 -48 33 -48 3 0 5 12 4 27 -2 28 -37 48 -37 21z"/>
<path d="M5783 433 c-24 -5 -24 -3 -25 -116 0 -54 3 -61 36 -94 27 -27 39 -33
49 -25 8 7 18 7 27 2 27 -17 30 -11 13 24 -9 20 -29 40 -45 47 -24 10 -28 16
-22 33 11 32 10 129 -1 131 -5 1 -20 0 -32 -2z"/>
<path d="M5930 424 c0 -14 3 -14 15 -4 8 7 15 14 15 16 0 2 -7 4 -15 4 -8 0
-15 -7 -15 -16z"/>
<path d="M4740 265 c0 -19 11 -19 36 0 18 14 18 14 -8 15 -18 0 -28 -5 -28
-15z"/>
<path d="M7880 103 c0 -5 11 -21 23 -37 16 -20 29 -27 40 -23 37 14 6 67 -39
67 -13 0 -24 -3 -24 -7z"/>
<path d="M1876 15 c-19 -14 -18 -15 13 -15 21 0 31 4 29 12 -6 18 -21 19 -42
3z"/>
<path d="M7917 23 c-16 -15 -5 -23 31 -23 l37 1 -25 14 c-29 16 -34 17 -43 8z"/>
</g>
</svg>
